<?xml version="1.0" encoding="utf-8"?>
<!-- Generator: Adobe Illustrator 21.1.0, SVG Export Plug-In . SVG Version: 6.00 Build 0)  -->
<svg version="1.1" xmlns="http://www.w3.org/2000/svg" xmlns:xlink="http://www.w3.org/1999/xlink" x="0px" y="0px"
	 viewBox="0 0 119.7 106.5" style="enable-background:new 0 0 119.7 106.5;" xml:space="preserve">
<style type="text/css">
	.st0{fill:#003955;}
	.st1{fill:#040A29;}
	.st2{clip-path:url(#SVGID_2_);}
	.st3{clip-path:url(#SVGID_4_);}
	.st4{clip-path:url(#SVGID_6_);}
	.st5{clip-path:url(#SVGID_8_);}
	.st6{clip-path:url(#SVGID_10_);}
	.st7{clip-path:url(#SVGID_12_);}
	.st8{clip-path:url(#SVGID_14_);}
	.st9{clip-path:url(#SVGID_16_);}
	.st10{clip-path:url(#SVGID_18_);}
	.st11{clip-path:url(#SVGID_20_);}
	.st12{clip-path:url(#SVGID_22_);}
	.st13{clip-path:url(#SVGID_24_);}
	.st14{clip-path:url(#SVGID_26_);}
	.st15{clip-path:url(#SVGID_28_);}
	.st16{clip-path:url(#SVGID_30_);}
	.st17{clip-path:url(#SVGID_32_);}
	.st18{clip-path:url(#SVGID_34_);}
	.st19{clip-path:url(#SVGID_36_);}
	.st20{clip-path:url(#SVGID_38_);}
	.st21{clip-path:url(#SVGID_40_);}
	.st22{clip-path:url(#SVGID_42_);}
	.st23{clip-path:url(#SVGID_44_);}
	.st24{clip-path:url(#SVGID_46_);}
	.st25{fill:#34C4B3;}
	.st26{fill:none;stroke:#FFFFFF;stroke-width:2;stroke-linecap:round;stroke-linejoin:round;stroke-miterlimit:10;}
	.st27{fill:#79DDD2;}
	.st28{fill:#FFFFFF;}
	.st29{fill:none;stroke:#FFFFFF;stroke-width:2;stroke-miterlimit:10;}
	.st30{fill:#FFFFFF;stroke:#FFFFFF;stroke-width:2;stroke-linecap:round;stroke-linejoin:round;stroke-miterlimit:10;}
	.st31{fill:none;}
	.st32{fill:none;stroke:#FFFFFF;stroke-width:0.5;stroke-linecap:round;stroke-miterlimit:10;}
	.st33{fill:#F5EE33;}
	.st34{fill:#363842;}
	.st35{fill:#FFFFFF;stroke:#FFFFFF;stroke-width:0.75;stroke-miterlimit:10;}
	.st36{fill:#020A16;}
	.st37{fill:#122749;}
	.st38{fill:#262626;}
	.st39{fill:#6484EA;}
	.st40{fill:#8CA9F4;}
	.st41{fill:#8CA9F4;stroke:#040A29;stroke-width:2;stroke-miterlimit:10;}
	.st42{fill:none;stroke:#040A29;stroke-width:2;stroke-miterlimit:10;}
	.st43{fill:#FFFFFF;stroke:#040A29;stroke-width:2;stroke-miterlimit:10;}
	.st44{clip-path:url(#SVGID_50_);}
	.st45{clip-path:url(#SVGID_52_);fill:#040A29;}
	.st46{clip-path:url(#SVGID_54_);}
	.st47{clip-path:url(#SVGID_56_);fill:#040A29;}
	.st48{clip-path:url(#SVGID_58_);}
	.st49{clip-path:url(#SVGID_60_);fill:#040A29;}
	.st50{clip-path:url(#SVGID_62_);}
	.st51{clip-path:url(#SVGID_64_);fill:#040A29;}
	.st52{clip-path:url(#SVGID_66_);}
	.st53{clip-path:url(#SVGID_68_);fill:#040A29;}
	.st54{clip-path:url(#SVGID_70_);}
	.st55{clip-path:url(#SVGID_72_);fill:#34C4B3;}
	.st56{clip-path:url(#SVGID_74_);}
	.st57{clip-path:url(#SVGID_76_);fill:#34C4B3;}
	.st58{clip-path:url(#SVGID_78_);}
	.st59{clip-path:url(#SVGID_80_);fill:#34C4B3;}
	.st60{clip-path:url(#SVGID_82_);}
	.st61{clip-path:url(#SVGID_84_);fill:#34C4B3;}
	.st62{clip-path:url(#SVGID_86_);}
	.st63{clip-path:url(#SVGID_88_);fill:#34C4B3;}
	.st64{clip-path:url(#SVGID_90_);}
	.st65{clip-path:url(#SVGID_92_);fill:#34C4B3;}
	.st66{clip-path:url(#SVGID_94_);}
	.st67{clip-path:url(#SVGID_96_);fill:#34C4B3;}
	.st68{fill:#34C4B3;stroke:#000000;stroke-width:2;stroke-linecap:round;stroke-linejoin:round;stroke-miterlimit:10;}
	.st69{fill:none;stroke:#122749;stroke-width:2;stroke-miterlimit:10;}
	.st70{fill:#50C7E2;}
	.st71{fill:#9FAEBB;}
	.st72{fill:#CCD4DB;}
	.st73{fill:#E4EAEF;}
	.st74{opacity:0.15;}
	.st75{display:none;opacity:0.15;}
	.st76{display:inline;fill:#34C4B3;}
	.st77{display:none;fill:#F4F5F7;}
	.st78{fill:none;stroke:#040A29;stroke-width:2;stroke-linecap:round;stroke-linejoin:round;stroke-miterlimit:10;}
	.st79{fill:#122648;}
	.st80{fill:#FFFFFF;stroke:#34C4B3;stroke-width:2;stroke-linecap:round;stroke-linejoin:round;}
	.st81{fill:#34C4B3;stroke:#040A29;stroke-width:2;stroke-linecap:round;stroke-linejoin:round;}
	.st82{fill:#FFFFFF;stroke:#040A29;stroke-width:1.5;stroke-linecap:round;stroke-linejoin:round;}
	.st83{fill:#FFFFFF;stroke:#040A29;stroke-linecap:round;stroke-linejoin:round;}
	.st84{fill:#34C4B3;stroke:#040A29;stroke-linecap:round;stroke-linejoin:round;}
	.st85{enable-background:new    ;}
	.st86{clip-path:url(#SVGID_98_);}
	.st87{clip-path:url(#SVGID_100_);enable-background:new    ;}
	.st88{clip-path:url(#SVGID_102_);}
	.st89{clip-path:url(#SVGID_104_);}
	.st90{opacity:0;clip-path:url(#SVGID_108_);}
	.st91{opacity:0;}
	.st92{clip-path:url(#SVGID_110_);}
	.st93{clip-path:url(#SVGID_108_);}
	.st94{clip-path:url(#SVGID_114_);}
	.st95{opacity:0;clip-path:url(#SVGID_118_);}
	.st96{clip-path:url(#SVGID_120_);}
	.st97{clip-path:url(#SVGID_118_);}
	.st98{clip-path:url(#SVGID_124_);}
	.st99{opacity:0;clip-path:url(#SVGID_128_);}
	.st100{clip-path:url(#SVGID_130_);}
	.st101{clip-path:url(#SVGID_128_);}
	.st102{clip-path:url(#SVGID_134_);}
	.st103{opacity:0;clip-path:url(#SVGID_138_);}
	.st104{clip-path:url(#SVGID_140_);}
	.st105{clip-path:url(#SVGID_138_);}
	.st106{clip-path:url(#SVGID_144_);}
	.st107{fill:none;stroke:#000000;stroke-width:2;stroke-linecap:round;stroke-linejoin:round;stroke-miterlimit:10;}
	.st108{fill:none;stroke:#000000;stroke-width:2;stroke-miterlimit:10;}
	.st109{fill:none;stroke:#34C4B3;stroke-width:2;stroke-linecap:round;stroke-linejoin:round;stroke-miterlimit:10;}
	.st110{fill:#7ADDD2;}
	.st111{fill:#34C4B3;stroke:#040A29;stroke-width:4;stroke-miterlimit:10;}
	.st112{fill:#1E9FC4;}
	.st113{fill:#FFFFFF;stroke:#040A29;stroke-width:2;stroke-linejoin:round;stroke-miterlimit:10;}
	.st114{fill:#6484EA;stroke:#040A29;stroke-width:2;stroke-miterlimit:10;}
	.st115{fill:#FFFFFF;stroke:#040A29;stroke-width:3;stroke-linecap:round;stroke-linejoin:round;stroke-miterlimit:10;}
	.st116{fill:#6484EA;stroke:#040A29;stroke-width:2;stroke-linecap:round;stroke-linejoin:round;}
	.st117{fill:none;stroke:#FFFFFF;stroke-miterlimit:10;}
	.st118{fill:#79DDD2;stroke:#FFFFFF;stroke-width:2;stroke-miterlimit:10;}
	.st119{fill:none;stroke:#040A29;stroke-width:2;stroke-linecap:round;stroke-miterlimit:10;}
	.st120{fill:#6484EA;stroke:#000000;stroke-width:2;stroke-linecap:round;stroke-linejoin:round;stroke-miterlimit:10;}
	.st121{fill:#6484EA;stroke:#040A29;stroke-miterlimit:10;}
</style>
<g id="Layer_1">
</g>
<g id="Layer_2">
</g>
<g id="Layer_3">
	<g>
		<g>
			<path class="st39" d="M48.3,96C22,96,0.6,74.6,0.6,48.2S22,0.5,48.3,0.5C65,0.5,79.7,9.1,88.2,22c0.5,0.7,3.9-3.6,4.3-2.8
				c0.5,0.8-2.1,6.6-1.6,7.5c3.3,6.5,5.2,13.8,5.2,21.6c0,2.1-0.1,4.2-0.4,6.3l-8.9-1.2c0.2-1.7,0.3-3.4,0.3-5.1
				c0-5.7-1.2-11-3.4-15.9c-0.5-1.1-7.1-2.2-7.7-3.3c-0.5-0.9,5-1.7,4.4-2.5c-7-10.3-18.8-17.1-32.1-17.1C27,9.5,9.6,26.9,9.6,48.2
				S27,87,48.3,87c5.6,0,13-1.2,18.1-3.5l0.3,0.5l3.9-2.8l1.8,3.2l-4.1,2.8l1.9,3.6C63.9,93.5,55.3,96,48.3,96z"/>
		</g>
		<circle class="st40" cx="93.3" cy="79.5" r="14.5"/>
		<g>
			<g>
				<path class="st78" d="M87.5,53.9c1-6.7,0.2-13.8-2.5-20.4"/>
				<path class="st78" d="M84.4,32.3l-9.5-2.5l6.1-3.6l0,0C69.5,9.2,46.5,3.8,28.4,14.4c-18.8,11-25.1,35.2-14,54s35.2,25.1,54,14
					c0.9-0.5,1.8-1.1,2.6-1.7"/>
				<path class="st78" d="M70.1,90.6C47.9,102,20.3,94.2,7.5,72.4C-5.7,49.8,1.8,20.8,24.4,7.5C46.2-5.3,74.1,1.4,87.9,22.2
					c0,0,5.1-3,5.1-3l-3.7,14.4l-4.9-1.3"/>
				<path class="st78" d="M90.9,27.4c4.2,8.5,5.6,17.7,4.6,26.5"/>
			</g>
			<g>
				<line class="st78" x1="47.8" y1="24.6" x2="47.8" y2="16.2"/>
				<line class="st78" x1="47.8" y1="81" x2="47.8" y2="73.4"/>
				<line class="st78" x1="64.8" y1="31.5" x2="70.7" y2="25.7"/>
				<line class="st78" x1="24.9" y1="71.5" x2="30.3" y2="66.1"/>
				<line class="st78" x1="72.2" y1="49" x2="80.6" y2="49"/>
				<line class="st78" x1="15.9" y1="49" x2="23.4" y2="49"/>
				<line class="st78" x1="65.5" y1="66.3" x2="69.1" y2="69.9"/>
				<line class="st78" x1="25.3" y1="26.1" x2="30.7" y2="31.5"/>
			</g>
		</g>
		<path class="st1" d="M88.8,106.5c-1.5,0-2.7-1.2-2.7-2.7l0-1.9c-2.8-0.9-5.5-2.4-7.7-4.3l-1.7,1c-0.4,0.2-0.9,0.4-1.4,0.4
			c-1,0-1.8-0.5-2.3-1.3L68,89c-0.8-1.3-0.3-2.9,1-3.7l1.7-1c-0.6-2.9-0.6-6-0.1-8.9l-1.7-0.9c-1.3-0.7-1.7-2.4-1-3.7l4.9-8.7
			c0.5-0.8,1.4-1.4,2.3-1.4c0.5,0,0.9,0.1,1.3,0.3l1.7,0.9c1.1-1,2.3-1.9,3.6-2.6c1.3-0.7,2.6-1.4,4-1.9l0-1.9
			c0-0.7,0.3-1.4,0.8-1.9c0.5-0.5,1.2-0.8,1.9-0.8l10-0.1c0.7,0,1.4,0.3,1.9,0.8c0.5,0.5,0.8,1.2,0.8,1.9l0,1.9
			c2.8,0.9,5.5,2.4,7.7,4.3l1.7-1c0.4-0.2,0.9-0.4,1.4-0.4c1,0,1.8,0.5,2.3,1.3l5.1,8.6c0.8,1.3,0.3,2.9-1,3.7l-1.7,1
			c0.6,2.9,0.6,6,0.1,8.9l1.7,0.9c0.6,0.4,1.1,0.9,1.3,1.6c0.2,0.7,0.1,1.4-0.3,2l-4.9,8.7c-0.4,0.6-0.9,1.1-1.6,1.3
			c-0.2,0.1-0.5,0.1-0.7,0.1c-0.5,0-0.9-0.1-1.3-0.3l-1.7-0.9c-1.1,1-2.3,1.9-3.6,2.6c-1.3,0.7-2.6,1.4-4,1.9l0,1.9
			c0,0.7-0.3,1.4-0.8,1.9s-1.2,0.8-1.9,0.8L88.8,106.5z M78.5,95.2c0.3,0,0.5,0.1,0.7,0.3c2.3,2.1,5.2,3.7,8.2,4.6
			c0.4,0.1,0.7,0.5,0.7,1l0,2.7c0,0.3,0.3,0.6,0.6,0.6l10-0.1c0.3,0,0.6-0.3,0.6-0.6l0-2.7c0-0.5,0.3-0.8,0.7-1
			c1.5-0.5,3-1.1,4.3-1.9c1.4-0.8,2.6-1.8,3.8-2.9c0.2-0.2,0.4-0.3,0.7-0.3c0.2,0,0.4,0,0.5,0.1l2.3,1.3c0.1,0.1,0.2,0.1,0.3,0.1
			c0.1,0,0.1,0,0.2,0c0.2,0,0.3-0.2,0.4-0.3l4.9-8.7c0.1-0.1,0.1-0.3,0.1-0.5c0-0.2-0.2-0.3-0.3-0.4l-2.3-1.3
			c-0.4-0.2-0.6-0.7-0.5-1.1c0.7-3.1,0.7-6.4-0.1-9.5c-0.1-0.4,0.1-0.9,0.5-1.1l2.3-1.4c0.3-0.2,0.4-0.6,0.2-0.9l-5.1-8.6
			c-0.1-0.2-0.3-0.3-0.5-0.3c-0.1,0-0.2,0-0.3,0.1l-2.3,1.4c-0.2,0.1-0.3,0.1-0.5,0.1c-0.3,0-0.5-0.1-0.7-0.3
			c-2.3-2.1-5.2-3.7-8.2-4.6c-0.4-0.1-0.7-0.5-0.7-1l0-2.7c0-0.2-0.1-0.3-0.2-0.4c-0.1-0.1-0.3-0.2-0.4-0.2l-10,0.1
			c-0.2,0-0.3,0.1-0.4,0.2c-0.1,0.1-0.2,0.3-0.2,0.4l0,2.7c0,0.5-0.3,0.8-0.7,1c-1.5,0.5-3,1.1-4.3,1.9c-1.4,0.8-2.6,1.8-3.8,2.9
			c-0.2,0.2-0.4,0.3-0.7,0.3c-0.2,0-0.4,0-0.5-0.1l-2.3-1.3c-0.1-0.1-0.2-0.1-0.3-0.1c-0.2,0-0.4,0.1-0.6,0.3l-4.9,8.7
			c-0.2,0.3-0.1,0.7,0.2,0.9l2.3,1.3c0.2,0.1,0.3,0.2,0.4,0.4c0.1,0.2,0.2,0.5,0.1,0.7c-0.7,3.1-0.7,6.4,0.1,9.5
			c0.1,0.4-0.1,0.9-0.5,1.1L70,87.1c-0.3,0.2-0.4,0.6-0.2,0.9l5.1,8.6c0.1,0.2,0.3,0.3,0.5,0.3c0.1,0,0.2,0,0.3-0.1l2.3-1.4
			C78.2,95.3,78.3,95.2,78.5,95.2z"/>
		<path class="st1" d="M93.6,95.7c-5.7,0-10.9-3-13.8-7.9c-2.2-3.7-2.8-8-1.7-12.1c1.1-4.1,3.7-7.6,7.4-9.8c2.5-1.4,5.2-2.2,8.1-2.2
			c5.6,0,10.9,3,13.8,7.9c4.5,7.6,1.9,17.4-5.7,21.9C99.3,94.9,96.5,95.7,93.6,95.7L93.6,95.7z M93.6,65.8c-2.5,0-4.9,0.7-7,1.9
			c-6.6,3.9-8.8,12.4-4.9,19.1c2.5,4.2,7.1,6.9,12,6.9c2.5,0,4.9-0.7,7-1.9c3.2-1.9,5.5-4.9,6.4-8.5c0.9-3.6,0.4-7.4-1.5-10.5
			C103.1,68.4,98.5,65.8,93.6,65.8z"/>
		<path class="st1" d="M112.5,78.2c-0.4,0-0.7-0.2-0.9-0.5c-0.1-0.1-0.1-0.3-0.1-0.4c-0.1-0.6-0.2-1.1-0.3-1.7
			c-0.1-0.3,0-0.5,0.1-0.8c0.1-0.2,0.4-0.4,0.6-0.5c0.1,0,0.2,0,0.2,0c0.5,0,0.9,0.3,1,0.8c0.1,0.6,0.2,1.2,0.3,1.8
			c0.1,0.6-0.3,1.1-0.9,1.2C112.6,78.2,112.6,78.2,112.5,78.2z"/>
		<path class="st1" d="M76.3,72.6c-0.2,0-0.3,0-0.4-0.1c-0.2-0.1-0.3-0.2-0.5-0.4c-0.2-0.3-0.2-0.7,0-1c0.3-0.6,0.6-1.2,1-1.8
			c0.2-0.3,0.5-0.5,0.9-0.5c0.2,0,0.4,0.1,0.5,0.1c0.5,0.3,0.6,0.9,0.4,1.4c-0.3,0.5-0.6,1.1-0.9,1.6C77.1,72.4,76.7,72.6,76.3,72.6
			L76.3,72.6z"/>
		<path class="st1" d="M76.4,88.9c-0.4,0-0.7-0.2-0.9-0.5c-2-4.2-2.5-9-1.4-13.5c0.1-0.5,0.5-0.8,1-0.8c0.1,0,0.2,0,0.2,0
			c0.6,0.1,0.9,0.7,0.8,1.2c-1,4-0.5,8.3,1.3,12c0.2,0.5,0,1.1-0.5,1.4C76.7,88.9,76.5,88.9,76.4,88.9
			C76.4,88.9,76.4,88.9,76.4,88.9z"/>
		<path class="st1" d="M107.3,94.1c-0.3,0-0.5-0.1-0.7-0.3c-0.1-0.1-0.1-0.1-0.2-0.2c-0.2-0.4-0.2-0.9,0.2-1.2
			c3-3.1,4.8-7.1,5.1-11.4c0-0.5,0.5-1,1-1c0.3,0,0.6,0.1,0.8,0.4s0.3,0.5,0.3,0.7c-0.3,4.8-2.3,9.3-5.7,12.8
			C107.8,94,107.5,94.1,107.3,94.1L107.3,94.1z"/>
		<polyline class="st78" points="55.8,23 47.8,49 53.8,70 		"/>
	</g>
</g>
</svg>
