<svg xmlns="http://www.w3.org/2000/svg" viewBox="0 0 115.04 108.52"><defs><style>.\35 f314fa1-12bf-4da3-a137-bcb1f4a7b9af{fill:#34c4b3;}.\38 07578d6-da25-4516-8397-04fee748f219{fill:#040a29;}.\37 7a46146-6f8f-47bd-ab90-ff4c69ed40f5{fill:#fff;}</style></defs><title>features</title><g id="e967d2c6-a34b-4ebb-a3d6-5a1e89efbaa0" data-name="Layer 3"><circle class="5f314fa1-12bf-4da3-a137-bcb1f4a7b9af" cx="52.5" cy="56.02" r="51.5"/><path class="807578d6-da25-4516-8397-04fee748f219" d="M52.5,108.52A52.5,52.5,0,1,1,105,56,52.56,52.56,0,0,1,52.5,108.52Zm0-103A50.5,50.5,0,1,0,103,56,50.56,50.56,0,0,0,52.5,5.52Z"/><circle class="77a46146-6f8f-47bd-ab90-ff4c69ed40f5" cx="52.5" cy="56.02" r="39.09"/><circle class="5f314fa1-12bf-4da3-a137-bcb1f4a7b9af" cx="52.5" cy="56.02" r="25.96"/><circle class="77a46146-6f8f-47bd-ab90-ff4c69ed40f5" cx="52.5" cy="56.02" r="11"/><rect class="807578d6-da25-4516-8397-04fee748f219" x="47.7" y="41" width="45.61" height="2" transform="translate(-10.93 52.14) rotate(-37.88)"/><polygon class="77a46146-6f8f-47bd-ab90-ff4c69ed40f5" points="95.96 21.89 94.03 15.09 86.1 21.53 85.88 30.09 94.3 31.61 102.22 25.17 95.96 21.89"/><path class="807578d6-da25-4516-8397-04fee748f219" d="M94.57,32.68l-9.72-1.76L85.11,21l9.46-7.69,2.24,7.85L104,25ZM86.9,29.26,94,30.55l6.39-5.2-5.3-2.78-1.64-5.75L87.09,22Z"/><circle class="807578d6-da25-4516-8397-04fee748f219" cx="52.5" cy="56" r="2"/><path class="807578d6-da25-4516-8397-04fee748f219" d="M114.34,21.85h-.14v-.14a.71.71,0,0,0-1.41,0v.14h-.14a.71.71,0,1,0,0,1.41h.14v.14a.71.71,0,0,0,1.41,0v-.14h.14a.71.71,0,0,0,0-1.41Z"/><path class="807578d6-da25-4516-8397-04fee748f219" d="M108.34,18.85h-.14v-.14a.71.71,0,0,0-1.41,0v.14h-.14a.71.71,0,1,0,0,1.41h.14v.14a.71.71,0,0,0,1.41,0v-.14h.14a.71.71,0,0,0,0-1.41Z"/><path class="807578d6-da25-4516-8397-04fee748f219" d="M86.34,2.85H86.2V2.71a.71.71,0,0,0-1.41,0v.14h-.14a.71.71,0,1,0,0,1.41h.14V4.4a.71.71,0,0,0,1.41,0V4.26h.14a.71.71,0,1,0,0-1.41Z"/><path class="807578d6-da25-4516-8397-04fee748f219" d="M91.34.85H91.2V.71a.71.71,0,0,0-1.41,0V.85h-.14a.71.71,0,1,0,0,1.41h.14V2.4a.71.71,0,0,0,1.41,0V2.26h.14a.71.71,0,1,0,0-1.41Z"/><path class="807578d6-da25-4516-8397-04fee748f219" d="M108.34,26.85h-.14v-.14a.71.71,0,0,0-1.41,0v.14h-.14a.71.71,0,1,0,0,1.41h.14v.14a.71.71,0,0,0,1.41,0v-.14h.14a.71.71,0,0,0,0-1.41Z"/></g></svg>