<?xml version="1.0" encoding="utf-8"?>
<!-- Generator: Adobe Illustrator 21.1.0, SVG Export Plug-In . SVG Version: 6.00 Build 0)  -->
<svg version="1.1" xmlns="http://www.w3.org/2000/svg" xmlns:xlink="http://www.w3.org/1999/xlink" x="0px" y="0px"
	 viewBox="0 0 118.2 118.9" style="enable-background:new 0 0 118.2 118.9;" xml:space="preserve">
<style type="text/css">
	.st0{fill:#003955;}
	.st1{fill:#040A29;}
	.st2{clip-path:url(#SVGID_2_);}
	.st3{clip-path:url(#SVGID_4_);}
	.st4{clip-path:url(#SVGID_6_);}
	.st5{clip-path:url(#SVGID_8_);}
	.st6{clip-path:url(#SVGID_10_);}
	.st7{clip-path:url(#SVGID_12_);}
	.st8{clip-path:url(#SVGID_14_);}
	.st9{clip-path:url(#SVGID_16_);}
	.st10{clip-path:url(#SVGID_18_);}
	.st11{clip-path:url(#SVGID_20_);}
	.st12{clip-path:url(#SVGID_22_);}
	.st13{clip-path:url(#SVGID_24_);}
	.st14{clip-path:url(#SVGID_26_);}
	.st15{clip-path:url(#SVGID_28_);}
	.st16{clip-path:url(#SVGID_30_);}
	.st17{clip-path:url(#SVGID_32_);}
	.st18{clip-path:url(#SVGID_34_);}
	.st19{clip-path:url(#SVGID_36_);}
	.st20{clip-path:url(#SVGID_38_);}
	.st21{clip-path:url(#SVGID_40_);}
	.st22{clip-path:url(#SVGID_42_);}
	.st23{clip-path:url(#SVGID_44_);}
	.st24{clip-path:url(#SVGID_46_);}
	.st25{fill:#34C4B3;}
	.st26{fill:none;stroke:#FFFFFF;stroke-width:2;stroke-linecap:round;stroke-linejoin:round;stroke-miterlimit:10;}
	.st27{fill:#79DDD2;}
	.st28{fill:#FFFFFF;}
	.st29{fill:none;stroke:#FFFFFF;stroke-width:2;stroke-miterlimit:10;}
	.st30{fill:#FFFFFF;stroke:#FFFFFF;stroke-width:2;stroke-linecap:round;stroke-linejoin:round;stroke-miterlimit:10;}
	.st31{fill:none;}
	.st32{fill:none;stroke:#FFFFFF;stroke-width:0.5;stroke-linecap:round;stroke-miterlimit:10;}
	.st33{fill:#F5EE33;}
	.st34{fill:#363842;}
	.st35{fill:#FFFFFF;stroke:#FFFFFF;stroke-width:0.75;stroke-miterlimit:10;}
	.st36{fill:#020A16;}
	.st37{fill:#122749;}
	.st38{fill:#262626;}
	.st39{fill:#34C4B3;stroke:#040A29;stroke-width:2;stroke-miterlimit:10;}
	.st40{fill:none;stroke:#040A29;stroke-width:2;stroke-miterlimit:10;}
	.st41{fill:#FFFFFF;stroke:#040A29;stroke-width:2;stroke-miterlimit:10;}
	.st42{fill:#8CA9F4;}
	.st43{fill:#6484EA;}
	.st44{clip-path:url(#SVGID_50_);}
	.st45{clip-path:url(#SVGID_52_);fill:#040A29;}
	.st46{clip-path:url(#SVGID_54_);}
	.st47{clip-path:url(#SVGID_56_);fill:#040A29;}
	.st48{clip-path:url(#SVGID_58_);}
	.st49{clip-path:url(#SVGID_60_);fill:#040A29;}
	.st50{clip-path:url(#SVGID_62_);}
	.st51{clip-path:url(#SVGID_64_);fill:#040A29;}
	.st52{clip-path:url(#SVGID_66_);}
	.st53{clip-path:url(#SVGID_68_);fill:#040A29;}
	.st54{clip-path:url(#SVGID_70_);}
	.st55{clip-path:url(#SVGID_72_);fill:#34C4B3;}
	.st56{clip-path:url(#SVGID_74_);}
	.st57{clip-path:url(#SVGID_76_);fill:#34C4B3;}
	.st58{clip-path:url(#SVGID_78_);}
	.st59{clip-path:url(#SVGID_80_);fill:#34C4B3;}
	.st60{clip-path:url(#SVGID_82_);}
	.st61{clip-path:url(#SVGID_84_);fill:#34C4B3;}
	.st62{clip-path:url(#SVGID_86_);}
	.st63{clip-path:url(#SVGID_88_);fill:#34C4B3;}
	.st64{clip-path:url(#SVGID_90_);}
	.st65{clip-path:url(#SVGID_92_);fill:#34C4B3;}
	.st66{clip-path:url(#SVGID_94_);}
	.st67{clip-path:url(#SVGID_96_);fill:#34C4B3;}
	.st68{fill:#34C4B3;stroke:#000000;stroke-width:2;stroke-linecap:round;stroke-linejoin:round;stroke-miterlimit:10;}
	.st69{fill:none;stroke:#122749;stroke-width:2;stroke-miterlimit:10;}
	.st70{fill:#50C7E2;}
	.st71{fill:#9FAEBB;}
	.st72{fill:#CCD4DB;}
	.st73{fill:#E4EAEF;}
	.st74{opacity:0.15;}
	.st75{display:none;opacity:0.15;}
	.st76{display:inline;fill:#34C4B3;}
	.st77{display:none;fill:#F4F5F7;}
	.st78{fill:none;stroke:#040A29;stroke-width:2;stroke-linecap:round;stroke-linejoin:round;stroke-miterlimit:10;}
	.st79{fill:#122648;}
	.st80{fill:#FFFFFF;stroke:#34C4B3;stroke-width:2;stroke-linecap:round;stroke-linejoin:round;}
	.st81{fill:#34C4B3;stroke:#040A29;stroke-width:2;stroke-linecap:round;stroke-linejoin:round;}
	.st82{fill:#FFFFFF;stroke:#040A29;stroke-width:1.5;stroke-linecap:round;stroke-linejoin:round;}
	.st83{fill:#FFFFFF;stroke:#040A29;stroke-linecap:round;stroke-linejoin:round;}
	.st84{fill:#34C4B3;stroke:#040A29;stroke-linecap:round;stroke-linejoin:round;}
	.st85{enable-background:new    ;}
	.st86{clip-path:url(#SVGID_98_);}
	.st87{clip-path:url(#SVGID_100_);enable-background:new    ;}
	.st88{clip-path:url(#SVGID_102_);}
	.st89{clip-path:url(#SVGID_104_);}
	.st90{opacity:0;clip-path:url(#SVGID_108_);}
	.st91{opacity:0;}
	.st92{clip-path:url(#SVGID_110_);}
	.st93{clip-path:url(#SVGID_108_);}
	.st94{clip-path:url(#SVGID_114_);}
	.st95{opacity:0;clip-path:url(#SVGID_118_);}
	.st96{clip-path:url(#SVGID_120_);}
	.st97{clip-path:url(#SVGID_118_);}
	.st98{clip-path:url(#SVGID_124_);}
	.st99{opacity:0;clip-path:url(#SVGID_128_);}
	.st100{clip-path:url(#SVGID_130_);}
	.st101{clip-path:url(#SVGID_128_);}
	.st102{clip-path:url(#SVGID_134_);}
	.st103{opacity:0;clip-path:url(#SVGID_138_);}
	.st104{clip-path:url(#SVGID_140_);}
	.st105{clip-path:url(#SVGID_138_);}
	.st106{clip-path:url(#SVGID_144_);}
	.st107{fill:none;stroke:#000000;stroke-width:2;stroke-linecap:round;stroke-linejoin:round;stroke-miterlimit:10;}
	.st108{fill:none;stroke:#000000;stroke-width:2;stroke-miterlimit:10;}
	.st109{fill:none;stroke:#34C4B3;stroke-width:2;stroke-linecap:round;stroke-linejoin:round;stroke-miterlimit:10;}
	.st110{fill:#7ADDD2;}
	.st111{fill:#34C4B3;stroke:#040A29;stroke-width:4;stroke-miterlimit:10;}
	.st112{fill:#1E9FC4;}
	.st113{fill:#FFFFFF;stroke:#040A29;stroke-width:2;stroke-linejoin:round;stroke-miterlimit:10;}
	.st114{fill:#FFFFFF;stroke:#040A29;stroke-width:3;stroke-linecap:round;stroke-linejoin:round;stroke-miterlimit:10;}
	.st115{fill:none;stroke:#FFFFFF;stroke-miterlimit:10;}
	.st116{fill:#79DDD2;stroke:#FFFFFF;stroke-width:2;stroke-miterlimit:10;}
	.st117{fill:none;stroke:#040A29;stroke-width:2;stroke-linecap:round;stroke-miterlimit:10;}
	.st118{fill:#6484EA;stroke:#040A29;stroke-miterlimit:10;}
	.st119{fill:#8CA9F4;stroke:#040A29;stroke-width:2;stroke-miterlimit:10;}
</style>
<g id="Layer_1">
	<g>
		<g>
			<defs>
				<path id="SVGID_49_" d="M-86.2-104c-0.4,0-0.8-0.3-0.8-0.7l-0.2-0.2c-0.4,0-0.7-0.4-0.7-0.8c0-0.4,0.3-0.8,0.7-0.8l0.2-0.2
					c0-0.4,0.4-0.7,0.8-0.7s0.8,0.3,0.8,0.7l0.2,0.2c0.4,0,0.7,0.4,0.7,0.8c0,0.4-0.3,0.8-0.7,0.8l-0.2,0.2
					C-85.5-104.3-85.8-104-86.2-104z"/>
			</defs>
			<use xlink:href="#SVGID_49_"  style="overflow:visible;fill:#040A29;"/>
			<clipPath id="SVGID_2_">
				<use xlink:href="#SVGID_49_"  style="overflow:visible;"/>
			</clipPath>
			<g class="st2">
				<defs>
					<rect id="SVGID_51_" x="-1289.8" y="-4104.9" width="1600" height="7919"/>
				</defs>
				<use xlink:href="#SVGID_51_"  style="overflow:visible;fill:#040A29;"/>
				<clipPath id="SVGID_4_">
					<use xlink:href="#SVGID_51_"  style="overflow:visible;"/>
				</clipPath>
			</g>
		</g>
		<g>
			<defs>
				<path id="SVGID_53_" d="M-71.2-69c-0.4,0-0.8-0.3-0.8-0.7l-0.2-0.2c-0.4,0-0.7-0.4-0.7-0.8c0-0.4,0.3-0.8,0.7-0.8l0.2-0.2
					c0-0.4,0.4-0.7,0.8-0.7s0.8,0.3,0.8,0.7l0.2,0.2c0.4,0,0.7,0.4,0.7,0.8c0,0.4-0.3,0.8-0.7,0.8l-0.2,0.2
					C-70.5-69.3-70.8-69-71.2-69z"/>
			</defs>
			<use xlink:href="#SVGID_53_"  style="overflow:visible;fill:#040A29;"/>
			<clipPath id="SVGID_6_">
				<use xlink:href="#SVGID_53_"  style="overflow:visible;"/>
			</clipPath>
			<g class="st4">
				<defs>
					<rect id="SVGID_55_" x="-1274.8" y="-4069.9" width="1600" height="7919"/>
				</defs>
				<use xlink:href="#SVGID_55_"  style="overflow:visible;fill:#040A29;"/>
				<clipPath id="SVGID_8_">
					<use xlink:href="#SVGID_55_"  style="overflow:visible;"/>
				</clipPath>
			</g>
		</g>
		<g>
			<defs>
				<path id="SVGID_57_" d="M-56.2-41c-0.4,0-0.8-0.3-0.8-0.7l-0.2-0.2c-0.4,0-0.7-0.4-0.7-0.8c0-0.4,0.3-0.8,0.7-0.8l0.2-0.2
					c0-0.4,0.4-0.7,0.8-0.7c0.4,0,0.8,0.3,0.8,0.7l0.2,0.2c0.4,0,0.7,0.4,0.7,0.8c0,0.4-0.3,0.8-0.7,0.8l-0.2,0.2
					C-55.5-41.3-55.8-41-56.2-41z"/>
			</defs>
			<use xlink:href="#SVGID_57_"  style="overflow:visible;fill:#040A29;"/>
			<clipPath id="SVGID_10_">
				<use xlink:href="#SVGID_57_"  style="overflow:visible;"/>
			</clipPath>
			<g class="st6">
				<defs>
					<rect id="SVGID_59_" x="-1259.8" y="-4041.9" width="1600" height="7919"/>
				</defs>
				<use xlink:href="#SVGID_59_"  style="overflow:visible;fill:#040A29;"/>
				<clipPath id="SVGID_12_">
					<use xlink:href="#SVGID_59_"  style="overflow:visible;"/>
				</clipPath>
			</g>
		</g>
		<g>
			<defs>
				<path id="SVGID_61_" d="M-61.2-37c-0.4,0-0.8-0.3-0.8-0.7l-0.2-0.2c-0.4,0-0.7-0.4-0.7-0.8c0-0.4,0.3-0.8,0.7-0.8l0.2-0.2
					c0-0.4,0.4-0.7,0.8-0.7c0.4,0,0.8,0.3,0.8,0.7l0.2,0.2c0.4,0,0.7,0.4,0.7,0.8c0,0.4-0.3,0.8-0.7,0.8l-0.2,0.2
					C-60.5-37.3-60.8-37-61.2-37z"/>
			</defs>
			<use xlink:href="#SVGID_61_"  style="overflow:visible;fill:#040A29;"/>
			<clipPath id="SVGID_14_">
				<use xlink:href="#SVGID_61_"  style="overflow:visible;"/>
			</clipPath>
			<g class="st8">
				<defs>
					<rect id="SVGID_63_" x="-1264.8" y="-4037.9" width="1600" height="7919"/>
				</defs>
				<use xlink:href="#SVGID_63_"  style="overflow:visible;fill:#040A29;"/>
				<clipPath id="SVGID_16_">
					<use xlink:href="#SVGID_63_"  style="overflow:visible;"/>
				</clipPath>
			</g>
		</g>
		<g>
			<defs>
				<path id="SVGID_65_" d="M-83.2-36c-0.4,0-0.8-0.3-0.8-0.7l-0.2-0.2c-0.4,0-0.7-0.4-0.7-0.8c0-0.4,0.3-0.8,0.7-0.8l0.2-0.2
					c0-0.4,0.4-0.7,0.8-0.7s0.8,0.3,0.8,0.7l0.2,0.2c0.4,0,0.7,0.4,0.7,0.8c0,0.4-0.3,0.8-0.7,0.8l-0.2,0.2
					C-82.5-36.3-82.8-36-83.2-36z"/>
			</defs>
			<use xlink:href="#SVGID_65_"  style="overflow:visible;fill:#040A29;"/>
			<clipPath id="SVGID_18_">
				<use xlink:href="#SVGID_65_"  style="overflow:visible;"/>
			</clipPath>
			<g class="st10">
				<defs>
					<rect id="SVGID_67_" x="-1286.8" y="-4036.9" width="1600" height="7919"/>
				</defs>
				<use xlink:href="#SVGID_67_"  style="overflow:visible;fill:#040A29;"/>
				<clipPath id="SVGID_20_">
					<use xlink:href="#SVGID_67_"  style="overflow:visible;"/>
				</clipPath>
			</g>
		</g>
	</g>
	<g>
		<polygon class="st43" points="1.2,25.1 13.2,25.1 32.2,99.1 0.2,99.1 		"/>
		<path class="st42" d="M72.1,95.4c-4.8-8.2-2.1-18.7,6.1-23.5s18.7-2.1,23.5,6.1c4.8,8.2,2.1,18.7-6.1,23.5
			C87.4,106.3,76.9,103.6,72.1,95.4z"/>
		<path class="st1" d="M45.1,10.9h-0.1v-0.1c0-0.4-0.3-0.7-0.7-0.7s-0.7,0.3-0.7,0.7v0.1h-0.1c-0.4,0-0.7,0.3-0.7,0.7
			s0.3,0.7,0.7,0.7h0.1v0.1c0,0.4,0.3,0.7,0.7,0.7s0.7-0.3,0.7-0.7v-0.1h0.1c0.4,0,0.7-0.3,0.7-0.7S45.5,10.9,45.1,10.9z"/>
		<path class="st1" d="M50.1,108.9h-0.1v-0.1c0-0.4-0.3-0.7-0.7-0.7s-0.7,0.3-0.7,0.7v0.1h-0.1c-0.4,0-0.7,0.3-0.7,0.7
			c0,0.4,0.3,0.7,0.7,0.7h0.1v0.1c0,0.4,0.3,0.7,0.7,0.7s0.7-0.3,0.7-0.7v-0.1h0.1c0.4,0,0.7-0.3,0.7-0.7
			C50.8,109.3,50.5,108.9,50.1,108.9z"/>
		<path class="st1" d="M55.1,111.9h-0.1v-0.1c0-0.4-0.3-0.7-0.7-0.7s-0.7,0.3-0.7,0.7v0.1h-0.1c-0.4,0-0.7,0.3-0.7,0.7
			c0,0.4,0.3,0.7,0.7,0.7h0.1v0.1c0,0.4,0.3,0.7,0.7,0.7s0.7-0.3,0.7-0.7v-0.1h0.1c0.4,0,0.7-0.3,0.7-0.7
			C55.8,112.3,55.5,111.9,55.1,111.9z"/>
		<path class="st1" d="M34.7,10.5c-1,0-1.8-0.8-1.8-1.9c0-0.5-1.1-1.6-1.5-1.6c-1,0-1.8-0.8-1.8-1.9c0-1,0.8-1.8,1.9-1.8
			c0.5,0,1.6-1.1,1.6-1.5C33.1,0.8,34,0,35,0c1,0,1.8,0.8,1.8,1.9c0,0.5,1.1,1.6,1.5,1.6c1,0,1.8,0.8,1.8,1.9c0,1-0.8,1.8-1.9,1.8
			c-0.5,0-1.6,1.1-1.6,1.5c0,0.1,0,0.2,0,0.2C36.4,9.7,35.7,10.5,34.7,10.5z M34.7,8.5C34.6,8.5,34.6,8.5,34.7,8.5L34.7,8.5
			C34.7,8.5,34.7,8.5,34.7,8.5z M32.3,5.2c1.1,0.4,2.2,1.6,2.5,2.7c0.4-1.1,1.6-2.2,2.7-2.5c-1.1-0.4-2.2-1.6-2.5-2.7
			C34.5,3.7,33.4,4.8,32.3,5.2z"/>
		<path class="st43" d="M32.3,5.2c1.1,0.4,2.2,1.6,2.5,2.7c0.4-1.1,1.6-2.2,2.7-2.5c-1.1-0.4-2.2-1.6-2.5-2.7
			C34.5,3.7,33.4,4.8,32.3,5.2z"/>
		<path class="st1" d="M108.7,45.5c-1,0-1.8-0.8-1.8-1.9c0-0.5-1.1-1.6-1.5-1.6c-1,0-1.8-0.8-1.8-1.9c0-1,0.8-1.8,1.9-1.8
			c0.5,0,1.6-1.1,1.6-1.5c0-1,0.8-1.8,1.9-1.8c1,0,1.8,0.8,1.8,1.9c0,0.5,1.1,1.6,1.5,1.6c1,0,1.8,0.8,1.8,1.9c0,1-0.8,1.8-1.9,1.8
			c-0.5,0-1.6,1.1-1.6,1.5c0,0.1,0,0.2,0,0.2C110.4,44.7,109.7,45.5,108.7,45.5z M108.7,43.5C108.6,43.5,108.6,43.5,108.7,43.5
			L108.7,43.5C108.7,43.5,108.7,43.5,108.7,43.5z M106.3,40.2c1.1,0.4,2.2,1.6,2.5,2.7c0.4-1.1,1.6-2.2,2.7-2.5
			c-1.1-0.4-2.2-1.6-2.5-2.7C108.5,38.7,107.4,39.8,106.3,40.2z"/>
		<path class="st43" d="M106.3,40.2c1.1,0.4,2.2,1.6,2.5,2.7c0.4-1.1,1.6-2.2,2.7-2.5c-1.1-0.4-2.2-1.6-2.5-2.7
			C108.5,38.7,107.4,39.8,106.3,40.2z"/>
		<path class="st1" d="M93.5,80.5l-8.9,10.7l-4.7-3.9c-0.4-0.3-1.1-0.3-1.4,0.1s-0.3,1.1,0.1,1.4l5.5,4.5c0.2,0.2,0.4,0.2,0.6,0.2
			c0.3,0,0.6-0.1,0.8-0.4L95,81.7c0.4-0.4,0.3-1.1-0.1-1.4C94.5,80,93.8,80,93.5,80.5z"/>
		<path class="st1" d="M118.1,95c-0.2-0.8-0.7-1.4-1.4-1.8l-2.2-1.3c0.7-3.7,0.7-7.4-0.1-11.1l2.2-1.3c1.4-0.8,1.9-2.6,1-4
			l-6.1-10.4c-0.8-1.4-2.6-1.9-4-1l-2.2,1.3c-2.8-2.4-6.1-4.3-9.6-5.4l0-2.6c0-0.8-0.3-1.5-0.9-2.1c-0.6-0.6-1.3-0.9-2.1-0.8l-5.2,0
			c0-0.1,0.1-0.2,0.1-0.4V25.5c0-0.6-0.4-1-1-1H69.6v-4.4c0-0.6-0.4-1-1-1h-6.5c-0.6,0-1,0.4-1,1v4.4H26.3v-4.4c0-0.6-0.4-1-1-1
			h-6.5c-0.6,0-1,0.4-1,1v4.4H1c-0.6,0-1,0.4-1,1v73.6c0,0.6,0.4,1,1,1h56.4l4.8,8.1c0.8,1.4,2.6,1.9,4,1l2.2-1.3
			c2.8,2.4,6.1,4.3,9.6,5.4l0,2.6c0,1.6,1.4,2.9,3,2.9l12.1-0.1c1.6,0,2.9-1.4,2.9-3l0-2.6c1.8-0.6,3.5-1.4,5-2.3
			c1.6-0.9,3.1-2,4.5-3.3l2.2,1.3c0.7,0.4,1.5,0.5,2.2,0.3c0.8-0.2,1.4-0.7,1.8-1.4l5.9-10.5C118.2,96.6,118.3,95.8,118.1,95z
			 M63.1,21.1h4.5v4.4c0,0,0,0,0,0s0,0,0,0V31h-4.5V21.1z M19.9,25.5C19.9,25.5,19.9,25.5,19.9,25.5C19.9,25.5,19.9,25.5,19.9,25.5
			v-4.4h4.5v4.4V31h-4.5V25.5z M2,26.5h15.9V32c0,0.6,0.4,1,1,1h6.5c0.6,0,1-0.4,1-1v-5.5h34.8V32c0,0.6,0.4,1,1,1h6.5
			c0.6,0,1-0.4,1-1v-5.5h15.9v10H2V26.5z M57.2,93.8c-1.4,0.8-1.9,2.6-1,4l0.2,0.3H2V38.5h83.5v15.7c0,0.1,0,0.3,0.1,0.4l-5,0
			c-0.8,0-1.5,0.3-2.1,0.9c-0.6,0.6-0.9,1.3-0.8,2.1l0,2.6c-1.8,0.6-3.5,1.4-5,2.3c-1.6,0.9-3.1,2-4.5,3.3l-2.2-1.3
			c-1.4-0.8-3.2-0.3-4,1.1l-5.9,10.5c-0.1,0.1-0.1,0.2-0.2,0.4c-0.2-0.4-0.5-0.6-0.9-0.6h-2.9c-0.6,0-1,0.4-1,1s0.4,1,1,1h2.9
			c0.3,0,0.5-0.1,0.7-0.3c0,1,0.5,2,1.5,2.6l2.2,1.3c-0.7,3.7-0.7,7.4,0.1,11.1L57.2,93.8z M116.2,96.4l-5.9,10.5
			c-0.1,0.2-0.4,0.4-0.6,0.5c-0.3,0.1-0.6,0-0.8-0.1l-2.8-1.6c-0.4-0.2-0.8-0.1-1.1,0.1c-1.4,1.3-3,2.5-4.7,3.5
			c-1.6,1-3.4,1.8-5.3,2.4c-0.4,0.1-0.7,0.5-0.7,0.9l0,3.2c0,0.6-0.5,1.1-1.1,1.1L81.1,117c-0.6,0-1.1-0.5-1.1-1.1l0-3.3
			c0-0.4-0.3-0.8-0.7-0.9c-3.8-1.1-7.3-3.1-10.1-5.7c-0.3-0.3-0.8-0.3-1.1-0.1l-2.8,1.6c-0.5,0.3-1.2,0.1-1.5-0.4l-6.1-10.4
			c-0.3-0.5-0.1-1.2,0.4-1.5l2.8-1.6c0.4-0.2,0.5-0.6,0.4-1c-0.9-3.8-0.9-7.8-0.1-11.6c0.1-0.2,0-0.5-0.1-0.7
			c-0.1-0.1-0.2-0.3-0.3-0.3L58,78.5c-0.5-0.3-0.7-0.9-0.4-1.5l5.9-10.5c0.3-0.5,0.9-0.7,1.5-0.4l2.8,1.6c0.4,0.2,0.8,0.1,1.1-0.1
			c1.4-1.3,3-2.5,4.7-3.5c1.6-1,3.4-1.8,5.3-2.4c0.4-0.1,0.7-0.5,0.7-0.9l0-3.2c0-0.3,0.1-0.6,0.3-0.8c0.2-0.2,0.5-0.3,0.8-0.3
			l12.1-0.1c0.3,0,0.6,0.1,0.8,0.3c0.2,0.2,0.3,0.5,0.3,0.8l0,3.3c0,0.4,0.3,0.8,0.7,0.9c3.8,1.1,7.3,3.1,10.1,5.7
			c0.3,0.3,0.8,0.3,1.1,0.1l2.8-1.6c0.5-0.3,1.2-0.1,1.5,0.4l6.1,10.4c0.3,0.5,0.1,1.2-0.4,1.5l-2.8,1.6c-0.4,0.2-0.5,0.6-0.4,1
			c0.9,3.8,0.9,7.8,0.1,11.6c-0.1,0.4,0.1,0.8,0.5,1l2.8,1.6c0.2,0.1,0.4,0.4,0.5,0.6C116.4,95.8,116.3,96.1,116.2,96.4z"/>
		<path class="st1" d="M103.3,77C98,68,86.3,65,77.2,70.3c-9.1,5.3-12.1,17-6.7,26.1c5.3,9.1,17,12.1,26.1,6.7
			C105.6,97.8,108.6,86.1,103.3,77z M95.6,101.5c-8.2,4.8-18.7,2.1-23.5-6.1c-4.8-8.2-2.1-18.7,6.1-23.5c8.2-4.8,18.7-2.1,23.5,6.1
			C106.5,86.2,103.8,96.7,95.6,101.5z"/>
		<path class="st1" d="M108.9,83.8c0,0.1,0.1,0.3,0.1,0.4c0.2,0.3,0.5,0.5,0.9,0.5c0.5-0.1,0.9-0.5,0.8-1.1
			c-0.1-0.7-0.2-1.5-0.4-2.2c-0.1-0.5-0.6-0.8-1.1-0.7c-0.5,0.1-0.8,0.6-0.7,1.1C108.7,82.5,108.8,83.1,108.9,83.8z"/>
		<path class="st1" d="M67.5,74c-0.4-0.3-1-0.1-1.3,0.3c-0.4,0.7-0.8,1.4-1.2,2.2c-0.1,0.3-0.1,0.6,0,0.9c0.1,0.2,0.2,0.3,0.4,0.4
			c0.5,0.2,1,0,1.3-0.5c0.3-0.7,0.7-1.4,1.1-2C68.1,74.9,67.9,74.3,67.5,74z"/>
		<path class="st1" d="M65.3,81.5c0.1-0.5-0.2-1-0.7-1.1c-0.5-0.1-1,0.2-1.1,0.7c-1.3,5.4-0.7,11.1,1.7,16c0,0,0,0,0,0.1
			c0.2,0.4,0.8,0.6,1.2,0.4c0.5-0.2,0.7-0.8,0.4-1.3C64.6,91.7,64.1,86.5,65.3,81.5z"/>
		<path class="st1" d="M110,87.3c-0.5,0-1,0.4-1,0.9c-0.4,5.3-2.6,10.3-6.3,14.1c-0.3,0.3-0.4,0.8-0.1,1.1c0,0.1,0.1,0.1,0.2,0.2
			c0.4,0.4,1,0.4,1.3,0c4-4.1,6.4-9.5,6.8-15.3C111,87.8,110.6,87.3,110,87.3z"/>
		<path class="st1" d="M15.9,48.3H13c-0.6,0-1,0.4-1,1s0.4,1,1,1h2.9c0.6,0,1-0.4,1-1S16.4,48.3,15.9,48.3z"/>
		<path class="st1" d="M25.6,48.3h-2.9c-0.6,0-1,0.4-1,1s0.4,1,1,1h2.9c0.6,0,1-0.4,1-1S26.2,48.3,25.6,48.3z"/>
		<path class="st1" d="M35.4,48.3h-2.9c-0.6,0-1,0.4-1,1s0.4,1,1,1h2.9c0.6,0,1-0.4,1-1S35.9,48.3,35.4,48.3z"/>
		<path class="st1" d="M45.1,48.3h-2.9c-0.6,0-1,0.4-1,1s0.4,1,1,1h2.9c0.6,0,1-0.4,1-1S45.7,48.3,45.1,48.3z"/>
		<path class="st1" d="M51.9,50.3h2.9c0.6,0,1-0.4,1-1s-0.4-1-1-1h-2.9c-0.6,0-1,0.4-1,1S51.4,50.3,51.9,50.3z"/>
		<path class="st1" d="M61.7,50.3h2.9c0.6,0,1-0.4,1-1s-0.4-1-1-1h-2.9c-0.6,0-1,0.4-1,1S61.1,50.3,61.7,50.3z"/>
		<path class="st1" d="M71.4,50.3h2.9c0.6,0,1-0.4,1-1s-0.4-1-1-1h-2.9c-0.6,0-1,0.4-1,1S70.8,50.3,71.4,50.3z"/>
		<path class="st1" d="M15.9,57.5H13c-0.6,0-1,0.4-1,1s0.4,1,1,1h2.9c0.6,0,1-0.4,1-1S16.4,57.5,15.9,57.5z"/>
		<path class="st1" d="M25.6,57.5h-2.9c-0.6,0-1,0.4-1,1s0.4,1,1,1h2.9c0.6,0,1-0.4,1-1S26.2,57.5,25.6,57.5z"/>
		<path class="st1" d="M35.4,57.5h-2.9c-0.6,0-1,0.4-1,1s0.4,1,1,1h2.9c0.6,0,1-0.4,1-1S35.9,57.5,35.4,57.5z"/>
		<path class="st1" d="M45.1,57.5h-2.9c-0.6,0-1,0.4-1,1s0.4,1,1,1h2.9c0.6,0,1-0.4,1-1S45.7,57.5,45.1,57.5z"/>
		<path class="st1" d="M51.9,59.5h2.9c0.6,0,1-0.4,1-1s-0.4-1-1-1h-2.9c-0.6,0-1,0.4-1,1S51.4,59.5,51.9,59.5z"/>
		<path class="st1" d="M61.7,59.5h2.9c0.6,0,1-0.4,1-1s-0.4-1-1-1h-2.9c-0.6,0-1,0.4-1,1S61.1,59.5,61.7,59.5z"/>
		<path class="st1" d="M71.4,59.5h2.9c0.6,0,1-0.4,1-1s-0.4-1-1-1h-2.9c-0.6,0-1,0.4-1,1S70.8,59.5,71.4,59.5z"/>
		<path class="st1" d="M15.9,66.7H13c-0.6,0-1,0.4-1,1s0.4,1,1,1h2.9c0.6,0,1-0.4,1-1S16.4,66.7,15.9,66.7z"/>
		<path class="st1" d="M25.6,66.7h-2.9c-0.6,0-1,0.4-1,1s0.4,1,1,1h2.9c0.6,0,1-0.4,1-1S26.2,66.7,25.6,66.7z"/>
		<path class="st1" d="M35.4,66.7h-2.9c-0.6,0-1,0.4-1,1s0.4,1,1,1h2.9c0.6,0,1-0.4,1-1S35.9,66.7,35.4,66.7z"/>
		<path class="st1" d="M45.1,66.7h-2.9c-0.6,0-1,0.4-1,1s0.4,1,1,1h2.9c0.6,0,1-0.4,1-1S45.7,66.7,45.1,66.7z"/>
		<path class="st1" d="M51.9,68.7h2.9c0.6,0,1-0.4,1-1s-0.4-1-1-1h-2.9c-0.6,0-1,0.4-1,1S51.4,68.7,51.9,68.7z"/>
		<path class="st1" d="M15.9,75.9H13c-0.6,0-1,0.4-1,1s0.4,1,1,1h2.9c0.6,0,1-0.4,1-1S16.4,75.9,15.9,75.9z"/>
		<path class="st1" d="M25.6,75.9h-2.9c-0.6,0-1,0.4-1,1s0.4,1,1,1h2.9c0.6,0,1-0.4,1-1S26.2,75.9,25.6,75.9z"/>
		<path class="st1" d="M35.4,75.9h-2.9c-0.6,0-1,0.4-1,1s0.4,1,1,1h2.9c0.6,0,1-0.4,1-1S35.9,75.9,35.4,75.9z"/>
		<path class="st1" d="M45.1,75.9h-2.9c-0.6,0-1,0.4-1,1s0.4,1,1,1h2.9c0.6,0,1-0.4,1-1S45.7,75.9,45.1,75.9z"/>
		<path class="st1" d="M15.9,85.1H13c-0.6,0-1,0.4-1,1s0.4,1,1,1h2.9c0.6,0,1-0.4,1-1S16.4,85.1,15.9,85.1z"/>
		<path class="st1" d="M25.6,85.1h-2.9c-0.6,0-1,0.4-1,1s0.4,1,1,1h2.9c0.6,0,1-0.4,1-1S26.2,85.1,25.6,85.1z"/>
		<path class="st1" d="M35.4,85.1h-2.9c-0.6,0-1,0.4-1,1s0.4,1,1,1h2.9c0.6,0,1-0.4,1-1S35.9,85.1,35.4,85.1z"/>
	</g>
</g>
<g id="Layer_2">
	<g>
		<defs>
			<path id="SVGID_69_" d="M-597.8-471.6c0-0.6-0.2-1.1-0.7-1.5c-0.4-0.4-1-0.6-1.5-0.5c-1,0.1-1.8,1-1.8,2.1l0,3.7
				c-0.3,0.1-0.5,0.2-0.7,0.4c0,0-1,0.9-1.2,1.1c-0.2,0.2-0.3,0.3-0.5,0.5c-0.8,0.8-1.6,1.6-2.5,2.1c-0.2,0.1-0.4,0.2-0.6,0.3
				c-1,0.6-2,1.1-2.7,2.4c-0.6,1.1-0.8,2.5-0.8,4.3l-0.1,2.3c0,0.3,0.2,0.6,0.5,0.6h0c0.3,0,0.5-0.2,0.5-0.5l0.1-2.3c0,0,0,0,0,0
				c0-1.6,0.2-2.8,0.6-3.8c0.5-1,1.3-1.4,2.2-2c0.2-0.1,0.4-0.2,0.6-0.4c1-0.6,1.9-1.5,2.7-2.3c0.2-0.2,0.3-0.3,0.5-0.5
				c0.2-0.2,0.9-0.8,1.2-1.1c0.3-0.3,0.8-0.3,1,0c0.1,0.1,0.2,0.3,0.2,0.5c0,0.2-0.1,0.4-0.2,0.5l-4.2,4.2c-0.2,0.2-0.2,0.5-0.1,0.7
				c0,0,0.1,0.1,0.1,0.2c0.2,0.2,0.4,0.2,0.6,0.1c0.2-0.1,0.3-0.3,0.3-0.5l0.2-0.2l3.6-3.6c0.6-0.6,0.8-1.4,0.4-2.2
				c-0.2-0.5-0.7-0.8-1.1-0.9l0-3.7c0-0.5,0.4-0.9,0.8-1c0,0,0.1,0,0.1,0c0.2,0,0.4,0.1,0.6,0.2c0.2,0.2,0.3,0.4,0.3,0.7v8.5
				c0,0.2-0.1,0.5-0.2,0.6l-0.3,0.3l-4.4,4.4c-0.2,0.2-0.3,0.3-0.5,0.4c-0.1,0.1-0.2,0.2-0.3,0.4l-0.4,2.7c0,0.3,0.2,0.6,0.5,0.6
				c0.3,0,0.5-0.2,0.5-0.5l0.3-2.4c0.2-0.1,0.3-0.3,0.5-0.4l4.7-4.7c0.1-0.1,0.3-0.3,0.4-0.4c0.1-0.1,0.2-0.2,0.1-0.3
				c0-0.1,0-0.4,0-0.6V-471.6z"/>
		</defs>
		<clipPath id="SVGID_22_">
			<use xlink:href="#SVGID_69_"  style="overflow:visible;"/>
		</clipPath>
		<g class="st12">
			<defs>
				<rect id="SVGID_71_" x="-1562.8" y="-7363.9" width="1600" height="8629"/>
			</defs>
			<clipPath id="SVGID_24_">
				<use xlink:href="#SVGID_71_"  style="overflow:visible;"/>
			</clipPath>
		</g>
	</g>
	<g>
		<defs>
			<path id="SVGID_73_" d="M-626.6-462.2c0.1,0.2,0.3,0.3,0.4,0.4l4.7,4.7c0.1,0.1,0.3,0.3,0.5,0.4l0.3,2.4c0,0.3,0.3,0.5,0.5,0.5
				c0.3,0,0.6-0.3,0.5-0.6l-0.4-2.7c0-0.2-0.1-0.3-0.3-0.4c-0.2-0.1-0.3-0.2-0.5-0.4l-4.4-4.4l-0.3-0.3c-0.2-0.1-0.2-0.4-0.2-0.6
				v-8.5c0-0.3,0.1-0.5,0.3-0.7c0.2-0.2,0.4-0.2,0.6-0.2c0,0,0.1,0,0.1,0c0.5,0,0.8,0.5,0.8,1v3.7c-0.5,0.1-0.9,0.4-1.1,0.9
				c-0.3,0.7-0.2,1.6,0.4,2.2l3.6,3.6l0.2,0.2c0,0.2,0.1,0.3,0.3,0.4c0.2,0.1,0.5,0.1,0.7-0.1c0.1-0.1,0.1-0.1,0.2-0.2
				c0.1-0.2,0.1-0.5-0.1-0.7l-4.2-4.2c-0.1-0.1-0.2-0.3-0.2-0.5c0-0.2,0.1-0.4,0.2-0.5c0.3-0.3,0.8-0.3,1.1,0c0.3,0.2,1,0.9,1.2,1.1
				c0.1,0.2,0.3,0.3,0.5,0.5c0.8,0.8,1.7,1.7,2.7,2.3c0.2,0.1,0.4,0.2,0.6,0.4c1,0.5,1.7,0.9,2.2,2c0.5,1,0.7,2.2,0.6,3.8
				c0,0,0,0,0,0l0.1,2.3c0,0.3,0.3,0.5,0.5,0.5c0.3,0,0.6-0.3,0.5-0.6l-0.1-2.3c0-1.8-0.2-3.2-0.8-4.3c-0.6-1.3-1.6-1.9-2.7-2.4
				c-0.2-0.1-0.4-0.2-0.6-0.3c-0.9-0.5-1.7-1.4-2.5-2.1c-0.2-0.2-0.3-0.3-0.5-0.5c-0.2-0.2-1.2-1.1-1.2-1.1
				c-0.2-0.2-0.5-0.3-0.7-0.4v-3.7c0-1.1-0.8-2-1.8-2.1c-0.9-0.1-1.8,0.5-2.1,1.4c-0.1,0.2-0.1,0.4-0.1,0.6v8.5c0,0.1,0,0.5,0,0.6
				C-626.8-462.3-626.7-462.3-626.6-462.2z"/>
		</defs>
		<clipPath id="SVGID_26_">
			<use xlink:href="#SVGID_73_"  style="overflow:visible;"/>
		</clipPath>
		<g class="st14">
			<defs>
				<rect id="SVGID_75_" x="-1562.8" y="-7363.9" width="1600" height="8629"/>
			</defs>
			<clipPath id="SVGID_28_">
				<use xlink:href="#SVGID_75_"  style="overflow:visible;"/>
			</clipPath>
		</g>
	</g>
	<g>
		<defs>
			<path id="SVGID_77_" d="M-606.1-476.6l-0.3,0.2c-0.4,0.2-0.6,0.6-0.5,1c0,0.3,0.1,0.6,0.1,0.9c0,0.3,0,0.6-0.1,0.9
				c-0.1,0.4,0.1,0.8,0.5,1l0.3,0.2c0.4,0.2,0.5,0.7,0.3,1.1l-0.4,0.7c-0.2,0.3-0.4,0.4-0.7,0.4c-0.1,0-0.3,0-0.4-0.1l-0.3-0.2
				c-0.2-0.1-0.3-0.1-0.5-0.1c-0.2,0-0.4,0.1-0.6,0.2c-0.5,0.4-1,0.7-1.5,0.9c-0.4,0.1-0.6,0.5-0.6,0.9v0.3c0,0.4-0.4,0.8-0.8,0.8
				h-0.9c-0.5,0-0.8-0.4-0.8-0.8v-0.3c0-0.4-0.3-0.8-0.6-0.9c-0.6-0.2-1.1-0.5-1.5-0.9c-0.2-0.1-0.4-0.2-0.6-0.2
				c-0.2,0-0.4,0-0.5,0.1l-0.3,0.2c-0.1,0.1-0.3,0.1-0.4,0.1c-0.3,0-0.6-0.1-0.7-0.4l-0.4-0.7c-0.2-0.4-0.1-0.9,0.3-1.1l0.3-0.2
				c0.4-0.2,0.6-0.6,0.5-1c0-0.3-0.1-0.6-0.1-0.9c0-0.3,0-0.6,0.1-0.9c0.1-0.4-0.1-0.8-0.5-1l-0.3-0.2c-0.4-0.2-0.5-0.7-0.3-1.1
				l0.4-0.7c0.2-0.3,0.4-0.4,0.7-0.4c0.1,0,0.3,0,0.4,0.1l0.3,0.2c0.2,0.1,0.3,0.1,0.5,0.1c0.2,0,0.4-0.1,0.6-0.2
				c0.5-0.4,1-0.7,1.5-0.9c0.4-0.1,0.6-0.5,0.6-0.9v-0.3c0-0.4,0.4-0.8,0.8-0.8h0.9c0.5,0,0.8,0.4,0.8,0.8v0.3
				c0,0.4,0.3,0.8,0.6,0.9c0.6,0.2,1.1,0.5,1.5,0.9c0.2,0.1,0.4,0.2,0.6,0.2c0.2,0,0.4,0,0.5-0.1l0.3-0.2c0.1-0.1,0.3-0.1,0.4-0.1
				c0.3,0,0.6,0.1,0.7,0.4l0.4,0.7C-605.6-477.4-605.7-476.9-606.1-476.6z M-605.7-475.8c0.9-0.5,1.2-1.6,0.7-2.4l-0.4-0.7
				c-0.3-0.5-0.9-0.9-1.6-0.9c-0.3,0-0.6,0.1-0.9,0.2l-0.3,0.2c0,0,0,0,0,0c-0.6-0.4-1.2-0.8-1.8-1c0,0,0,0,0,0v-0.3
				c0-1-0.8-1.8-1.8-1.8h-0.9c-1,0-1.8,0.8-1.8,1.8v0.3c0,0,0,0,0,0c-0.6,0.2-1.3,0.6-1.8,1c0,0,0,0,0,0c0,0,0,0,0,0l-0.3-0.2
				c-0.3-0.2-0.6-0.2-0.9-0.2c-0.6,0-1.2,0.3-1.6,0.9l-0.4,0.7c-0.5,0.8-0.2,1.9,0.7,2.4l0.3,0.2c0,0,0,0,0,0
				c-0.1,0.3-0.1,0.7-0.1,1s0,0.7,0.1,1c0,0,0,0,0,0l-0.3,0.2c-0.9,0.5-1.2,1.6-0.7,2.4l0.4,0.7c0.3,0.5,0.9,0.9,1.6,0.9
				c0.3,0,0.6-0.1,0.9-0.2l0.3-0.2c0,0,0,0,0,0c0.6,0.4,1.2,0.8,1.8,1c0,0,0,0,0,0v0.3c0,1,0.8,1.8,1.8,1.8h0.9c1,0,1.8-0.8,1.8-1.8
				v-0.3c0,0,0,0,0,0c0.6-0.2,1.3-0.6,1.8-1c0,0,0,0,0,0c0,0,0,0,0,0l0.3,0.2c0.3,0.2,0.6,0.2,0.9,0.2c0.6,0,1.2-0.3,1.6-0.9
				l0.4-0.7c0.5-0.8,0.2-1.9-0.7-2.4l-0.3-0.2c0,0,0,0,0,0c0.1-0.3,0.1-0.7,0.1-1c0-0.3,0-0.7-0.1-1c0,0,0,0,0,0L-605.7-475.8z"/>
		</defs>
		<clipPath id="SVGID_30_">
			<use xlink:href="#SVGID_77_"  style="overflow:visible;"/>
		</clipPath>
		<g class="st16">
			<defs>
				<rect id="SVGID_79_" x="-1562.8" y="-7363.9" width="1600" height="8629"/>
			</defs>
			<clipPath id="SVGID_32_">
				<use xlink:href="#SVGID_79_"  style="overflow:visible;"/>
			</clipPath>
		</g>
	</g>
	<g>
		<defs>
			<path id="SVGID_81_" d="M-611.8-472.5c-1.1,0-2.1-0.9-2.1-2.1s0.9-2.1,2.1-2.1c1.1,0,2.1,0.9,2.1,2.1S-610.6-472.5-611.8-472.5z
				 M-611.8-477.6c-1.7,0-3,1.3-3,3c0,1.6,1.3,3,3,3c1.7,0,3-1.3,3-3S-610.1-477.6-611.8-477.6z"/>
		</defs>
		<clipPath id="SVGID_34_">
			<use xlink:href="#SVGID_81_"  style="overflow:visible;"/>
		</clipPath>
		<g class="st18">
			<defs>
				<rect id="SVGID_83_" x="-1562.8" y="-7363.9" width="1600" height="8629"/>
			</defs>
			<clipPath id="SVGID_36_">
				<use xlink:href="#SVGID_83_"  style="overflow:visible;"/>
			</clipPath>
		</g>
	</g>
	<g>
		<defs>
			<path id="SVGID_85_" d="M-342.7-472.6c-0.6,0-1.1,0.5-1.1,1.1v15.8c0,0.6,0.5,1.1,1.1,1.1h18.9c0.6,0,1.1-0.5,1.1-1.1v-15.8
				c0-0.6-0.5-1.1-1.1-1.1L-342.7-472.6L-342.7-472.6z M-323.8-453.7h-18.9c-1.1,0-2.1-0.9-2.1-2.1v-15.8c0-1.1,0.9-2.1,2.1-2.1
				h18.9c1.1,0,2.1,0.9,2.1,2.1v15.8C-321.8-454.6-322.7-453.7-323.8-453.7z"/>
		</defs>
		<clipPath id="SVGID_38_">
			<use xlink:href="#SVGID_85_"  style="overflow:visible;"/>
		</clipPath>
		<g class="st20">
			<defs>
				<rect id="SVGID_87_" x="-1562.8" y="-7363.9" width="1600" height="8629"/>
			</defs>
			<clipPath id="SVGID_40_">
				<use xlink:href="#SVGID_87_"  style="overflow:visible;"/>
			</clipPath>
		</g>
	</g>
	<g>
		<defs>
			<path id="SVGID_89_" d="M-325.3-472.6c-0.3,0-0.5-0.2-0.5-0.5v-1.4c0-3.9-3.1-7-7-7s-7,3.1-7,7v1.4c0,0.3-0.2,0.5-0.5,0.5
				c-0.3,0-0.5-0.2-0.5-0.5v-1.4c0-4.4,3.6-8,8-8s8,3.6,8,8v1.4C-324.8-472.8-325-472.6-325.3-472.6z"/>
		</defs>
		<clipPath id="SVGID_42_">
			<use xlink:href="#SVGID_89_"  style="overflow:visible;"/>
		</clipPath>
		<g class="st22">
			<defs>
				<rect id="SVGID_91_" x="-1562.8" y="-7363.9" width="1600" height="8629"/>
			</defs>
			<clipPath id="SVGID_44_">
				<use xlink:href="#SVGID_91_"  style="overflow:visible;"/>
			</clipPath>
		</g>
	</g>
	<g>
		<defs>
			<path id="SVGID_93_" d="M-333.8-467.7c-1.1,0-2.1,1-2.1,2.2c0,0.9,0.5,1.7,1.3,2c0.2,0.1,0.3,0.3,0.3,0.5v2.8
				c0,0.3,0.2,0.5,0.5,0.5c0.3,0,0.5-0.2,0.5-0.5v-2.8c0-0.2,0.1-0.4,0.3-0.5c0.8-0.3,1.3-1.1,1.3-2
				C-331.7-466.7-332.6-467.7-333.8-467.7z M-333.8-458.7c-0.8,0-1.4-0.7-1.4-1.5v-2.5c-1-0.6-1.6-1.6-1.6-2.8c0-1.7,1.3-3.2,3-3.2
				c1.7,0,3,1.4,3,3.2c0,1.2-0.6,2.2-1.6,2.8v2.5C-332.3-459.3-333-458.7-333.8-458.7z"/>
		</defs>
		<clipPath id="SVGID_46_">
			<use xlink:href="#SVGID_93_"  style="overflow:visible;"/>
		</clipPath>
		<g class="st24">
			<defs>
				<rect id="SVGID_95_" x="-1562.8" y="-7363.9" width="1600" height="8629"/>
			</defs>
			<clipPath id="SVGID_48_">
				<use xlink:href="#SVGID_95_"  style="overflow:visible;"/>
			</clipPath>
		</g>
	</g>
</g>
<g id="Layer_3">
</g>
</svg>
