<svg id="6bd3bdb2-3fe5-42e6-a213-68d8d7a03eab" data-name="Layer 1" xmlns="http://www.w3.org/2000/svg" viewBox="0 0 90.86 109.47"><defs><style>.\31 61c6641-0029-4910-9922-372ab922b4d7{fill:#34c4b3;}.d6ddb8b3-9ff0-415e-85db-ce51a7cf53a6{fill:#79ddd2;}.a69f25ed-ddd5-48d9-b4c3-14c99d0ce95a{fill:none;}.\35 512489b-b4d3-47bf-9257-ff4d03deb250{fill:#fff;}.e6c41c24-ef60-4fdf-a296-1b8e50ac4d3d{fill:#040a29;}</style></defs><title>features</title><polygon class="161c6641-0029-4910-9922-372ab922b4d7" points="81.94 57.72 78.34 43.31 81.94 43.31 83.74 43.31 84.64 44.62 84.64 56.41 83.74 57.72 81.94 57.72"/><path class="d6ddb8b3-9ff0-415e-85db-ce51a7cf53a6" d="M5.85,74.46S9.91,70.33,13.51,73s3.6,4.5,9.91,4.5l-.78-4.14L20.71,69.5,16.37,67H12.45L8.31,69.7Z"/><path class="d6ddb8b3-9ff0-415e-85db-ce51a7cf53a6" d="M28.82,59.52s9.91-7.2,13.51,0,13.51,6.3,13.51,6.3l1.8-3.6V46.91H36l-4.5,2.7-1.8,4.5Z"/><path class="d6ddb8b3-9ff0-415e-85db-ce51a7cf53a6" d="M61.23,74.72s6.19-4.22,8.44,0,8.44,3.69,8.44,3.69l1.13-2.11v-9H65.73l-2.81,1.58-1.13,2.64Z"/><polygon class="161c6641-0029-4910-9922-372ab922b4d7" points="7.6 55.92 4.15 43.31 0 43.31 0 56.82 7.6 55.92"/><polygon class="a69f25ed-ddd5-48d9-b4c3-14c99d0ce95a" points="47.95 95.24 48.17 95.37 48.17 95.37 47.95 95.24 47.95 95.24"/><polygon class="5512489b-b4d3-47bf-9257-ff4d03deb250" points="47.91 95.21 47.91 95.21 47.95 95.24 47.95 95.24 47.91 95.21"/><path class="161c6641-0029-4910-9922-372ab922b4d7" d="M45.09,20.38v6.2H43.76V24.09H41.55v2.49H40.24v-6.2h1.31v2.53h2.21V20.38Z"/><path class="161c6641-0029-4910-9922-372ab922b4d7" d="M50.34,25.81a2.25,2.25,0,0,1-1.92.86,2.14,2.14,0,0,1-2.2-2.21,2.17,2.17,0,1,1,4.35,0c0,.11,0,.28,0,.39H47.48c.06.49.59.7,1,.7a1.16,1.16,0,0,0,.92-.4Zm-1-1.71a.85.85,0,0,0-.88-.72.92.92,0,0,0-.94.72Z"/><path class="161c6641-0029-4910-9922-372ab922b4d7" d="M52.86,20.09v6.49H51.61V20.09Z"/><path class="161c6641-0029-4910-9922-372ab922b4d7" d="M55.45,20.09v6.49H54.19V20.09Z"/><path class="161c6641-0029-4910-9922-372ab922b4d7" d="M56.53,24.46a2.18,2.18,0,1,1,2.18,2.19A2.11,2.11,0,0,1,56.53,24.46Zm3.13,0a.95.95,0,1,0-1,1A.93.93,0,0,0,59.66,24.46Z"/><rect class="e6c41c24-ef60-4fdf-a296-1b8e50ac4d3d" x="61.72" y="19" width="0.9" height="9"/><path class="e6c41c24-ef60-4fdf-a296-1b8e50ac4d3d" d="M15.76,33.77a1.63,1.63,0,0,1-1.62-1.71,2.41,2.41,0,0,0-1.35-1.44,1.67,1.67,0,0,1,.09-3.33,2.41,2.41,0,0,0,1.44-1.35,1.67,1.67,0,0,1,3.33.09A2.41,2.41,0,0,0,19,27.46a1.67,1.67,0,0,1-.09,3.33,2.41,2.41,0,0,0-1.44,1.35,1.33,1.33,0,0,1,0,.22A1.86,1.86,0,0,1,15.76,33.77ZM15.68,32h0Zm-2.14-3a4.27,4.27,0,0,1,2.28,2.42,4.27,4.27,0,0,1,2.42-2.28A4.27,4.27,0,0,1,16,26.69,4.28,4.28,0,0,1,13.54,29Z"/><path class="d6ddb8b3-9ff0-415e-85db-ce51a7cf53a6" d="M13.54,29a4.27,4.27,0,0,1,2.28,2.42,4.27,4.27,0,0,1,2.42-2.28A4.27,4.27,0,0,1,16,26.69,4.28,4.28,0,0,1,13.54,29Z"/><path class="e6c41c24-ef60-4fdf-a296-1b8e50ac4d3d" d="M86,9.45a1.63,1.63,0,0,1-1.62-1.71A2.41,2.41,0,0,0,83,6.3,1.63,1.63,0,0,1,81.4,4.59,1.63,1.63,0,0,1,83.11,3a2.41,2.41,0,0,0,1.44-1.35,1.67,1.67,0,0,1,3.33.09,2.41,2.41,0,0,0,1.35,1.44,1.63,1.63,0,0,1,1.62,1.71,1.63,1.63,0,0,1-1.71,1.62,2.41,2.41,0,0,0-1.44,1.35,1.33,1.33,0,0,1,0,.22A1.86,1.86,0,0,1,86,9.45Zm-.08-1.79h0Zm-2.14-3a4.27,4.27,0,0,1,2.28,2.42A4.27,4.27,0,0,1,88.48,4.8,4.27,4.27,0,0,1,86.2,2.38,4.28,4.28,0,0,1,83.78,4.66Z"/><path class="d6ddb8b3-9ff0-415e-85db-ce51a7cf53a6" d="M83.78,4.66a4.27,4.27,0,0,1,2.28,2.42A4.27,4.27,0,0,1,88.48,4.8,4.27,4.27,0,0,1,86.2,2.38,4.28,4.28,0,0,1,83.78,4.66Z"/><path class="e6c41c24-ef60-4fdf-a296-1b8e50ac4d3d" d="M8,20.66H7.83v-.13a.64.64,0,0,0-1.27,0v.13H6.43a.64.64,0,1,0,0,1.27h.13v.13a.64.64,0,0,0,1.27,0v-.13H8a.64.64,0,1,0,0-1.27Z"/><path class="e6c41c24-ef60-4fdf-a296-1b8e50ac4d3d" d="M80,12.56h-.13v-.13a.64.64,0,0,0-1.27,0v.13h-.13a.64.64,0,1,0,0,1.27h.13V14a.64.64,0,0,0,1.27,0v-.13H80a.64.64,0,1,0,0-1.27Z"/><path class="161c6641-0029-4910-9922-372ab922b4d7" d="M9.43,90.84A9.17,9.17,0,0,1,5.33,88l-.15-.19.08-.23a14.48,14.48,0,0,0,.67-3l0-.28A11.06,11.06,0,0,0,10,88.87v2.2Z"/><path class="161c6641-0029-4910-9922-372ab922b4d7" d="M19.35,91.08V88.66l.18-.13a8.83,8.83,0,0,0,2.21-2.39,12.62,12.62,0,0,0,1.55-2.78l.17,1.27a14.44,14.44,0,0,0,.67,3l.08.23L24,88A9.21,9.21,0,0,1,20,90.85Z"/><circle class="e6c41c24-ef60-4fdf-a296-1b8e50ac4d3d" cx="10.36" cy="50.07" r="0.9"/><circle class="e6c41c24-ef60-4fdf-a296-1b8e50ac4d3d" cx="14.86" cy="50.07" r="0.9"/><circle class="e6c41c24-ef60-4fdf-a296-1b8e50ac4d3d" cx="5.85" cy="50.07" r="0.9"/><path class="e6c41c24-ef60-4fdf-a296-1b8e50ac4d3d" d="M82.73,42.43V40.16c0-4-3.56-7.24-7.94-7.24a8.63,8.63,0,0,0-1.89.22V12.7a.9.9,0,0,0-.9-.9H29.68a.9.9,0,0,0-.9.9V37a.9.9,0,0,0,.9.9H41.11c.49.44,1.58,1.76.41,4.1a.9.9,0,0,0,.81,1.3c1.75,0,5-1.16,5.36-5.4H67.26a6.59,6.59,0,0,0-.41,2.25v2.28A3.82,3.82,0,0,0,64,46.12v9.16a3.83,3.83,0,0,0,3.83,3.83H81.72a3.83,3.83,0,0,0,3.83-3.83V46.12A3.82,3.82,0,0,0,82.73,42.43ZM74.8,34.74c3.37,0,6.12,2.43,6.12,5.41v2.14H68.68V40.16C68.68,37.17,71.42,34.74,74.8,34.74Zm-28,1.37a.9.9,0,0,0-.9.9c0,2.63-1.19,3.72-2.21,4.18a4.69,4.69,0,0,0-1.79-4.93.86.86,0,0,0-.17-.07h0a.86.86,0,0,0-.25-.05l-.08,0H30.58V13.6H71.1V33.71s0,0,0,0a7.77,7.77,0,0,0-3,2.51.87.87,0,0,0-.47-.15Zm36.9,19.17a2,2,0,0,1-2,2H67.87a2,2,0,0,1-2-2V46.12a2,2,0,0,1,2-2H81.72a2,2,0,0,1,2,2Z"/><path class="e6c41c24-ef60-4fdf-a296-1b8e50ac4d3d" d="M80.81,93.14l-5-1.53a1,1,0,0,1-.69-.95v-2l.18-.13a8.89,8.89,0,0,0,1.1-1A9.37,9.37,0,0,0,79,81l0-2.65.48-1a8.23,8.23,0,0,0,.77-3.48V67.16a.81.81,0,0,0-.76-.84H67.86a7.52,7.52,0,0,0-7.25,7.75A6.86,6.86,0,0,0,61.24,77l.66,1.52v2.11a9.85,9.85,0,0,0,3.72,7.8l.18.13v2.09c0,.63-.33.84-1.32,1.14l-2.59.79-7.53-2.92,0-.33a.9.9,0,0,0-.22-.66L51.79,86V81.41l.15-.13c.23-.2.46-.41.68-.63A15.2,15.2,0,0,0,57,69.93l0-3.57a15.33,15.33,0,0,0,1.26-6.11V46.43a.81.81,0,0,0-.76-.84H39.35c-6.14,0-11.14,5.34-11.14,11.9v2.76a15.33,15.33,0,0,0,1.26,6.1l0,.18v2.92a15.76,15.76,0,0,0,5,11.72l.15.13V86l-2.38,2.66a.89.89,0,0,0-.22.66l0,.33-7.78,3a5.78,5.78,0,0,0-1.39.78l-.23.17L20.5,92.45l.82-.38a9.05,9.05,0,0,0,4.43-3.79.92.92,0,0,0,0-.77c-.91-1.95-1-5.42-1.11-8.2,0-.92-.05-1.77-.11-2.53a11.82,11.82,0,0,0-3.71-8,8.87,8.87,0,0,0-6.41-2.91C8.95,65.82,4.5,71.28,4.5,78a14.84,14.84,0,0,0,.2,2.45c-.09,2.54-.28,5.38-1.07,7.07a.92.92,0,0,0,0,.77,9,9,0,0,0,4.44,3.79l.82.38L4.83,94.61a5,5,0,0,0-2.58,4.47v9.55a.81.81,0,0,0,.76.84.81.81,0,0,0,.76-.84V99.08a3.31,3.31,0,0,1,1.72-3l4.35-2.32,1.65,1.67a4.43,4.43,0,0,0,6.39,0l1.65-1.67,2,1.08-.24.4a6.69,6.69,0,0,0-.91,3.38v9.95a.77.77,0,1,0,1.53,0V98.68a4.7,4.7,0,0,1,2.9-4.4l8.22-3.18,3.47,5.55a2,2,0,0,0,1.51,1A2,2,0,0,0,39.7,97l2.78-3v14.6a.77.77,0,1,0,1.53,0V94l2.78,3a2,2,0,0,0,1.65.63,2,2,0,0,0,1.51-1l3.47-5.55,8.22,3.18a4.7,4.7,0,0,1,2.91,4.4v9.95a.77.77,0,1,0,1.53,0V98.68a6.59,6.59,0,0,0-1.68-4.43l-.47-.53,1-.3a6,6,0,0,0,1.05-.4l.3-.16,3.45,3.68v12.08a.77.77,0,1,0,1.53,0V96.55l3.44-3.66.31.16a2.34,2.34,0,0,0,.43.18l5,1.53a3.3,3.3,0,0,1,2.26,3.17v10.69a.77.77,0,1,0,1.53,0V97.94A5,5,0,0,0,80.81,93.14ZM6.37,76.9a10.36,10.36,0,0,1,2.57-6.3A7.73,7.73,0,0,1,14.69,68a7.57,7.57,0,0,1,3.7,1,11.1,11.1,0,0,1,4.12,9c0,5.71-3.64,10.36-8.1,10.36s-8-4.56-8.1-10.2C6.33,77.7,6.35,77.28,6.37,76.9ZM10,91.08l-.61-.23A9.17,9.17,0,0,1,5.33,88l-.15-.19.08-.23a14.48,14.48,0,0,0,.67-3l0-.28A11.06,11.06,0,0,0,10,88.87Zm6.82,3.16a3,3,0,0,1-4.33,0l-1.36-1.37.15-.29a2.38,2.38,0,0,0,.25-1.06V89.62a8.19,8.19,0,0,0,2.84.52l.31,0a8.11,8.11,0,0,0,2.51-.41l.59-.2v2a2.37,2.37,0,0,0,.25,1.06l.15.29Zm2.49-3.16V88.66l.18-.13a8.83,8.83,0,0,0,2.21-2.39,12.62,12.62,0,0,0,1.55-2.78l.17,1.27a14.44,14.44,0,0,0,.67,3l.08.23L24,88A9.21,9.21,0,0,1,20,90.85ZM31,69.45V66.25a.92.92,0,0,0-.08-.38,13.51,13.51,0,0,1-1.22-5.62V57.49c0-5.63,4.31-10.21,9.62-10.21h17.4v13a13.52,13.52,0,0,1-1.22,5.62.91.91,0,0,0-.08.38v3.68a13.25,13.25,0,0,1-3.85,9.46c-.31.31-.64.6-1,.87a11.58,11.58,0,0,1-7.37,2.65l-.84,0C36,82.44,31,76.54,31,69.45Zm7.45,26.48h-.28l-.22,0-.18-.22-4-6.32,1.71-1.91L42,92.17ZM43.24,91l-7-5.11V82.5l.67.39a12.54,12.54,0,0,0,5.44,1.67,12.88,12.88,0,0,0,7.26-1.62l.67-.37v3.36Zm5.32,4.84-.5.08-.22-.18-3.39-3.62,6.47-4.71,1.71,1.91ZM70.46,95l-3.24-3.45,0-.23a3.34,3.34,0,0,0,.07-.68V89.48l.6.21a7.6,7.6,0,0,0,2.27.43h.27A8.07,8.07,0,0,0,73,89.71l.59-.2v1.14a2.84,2.84,0,0,0,.08.65l.06.24Zm0-6.58h-.22c-3.75-.12-6.8-3.62-6.8-7.79V78.22a.92.92,0,0,0-.09-.39l-.75-1.6a4.94,4.94,0,0,1-.46-2.09A5.93,5.93,0,0,1,67.86,68H78.77v5.82a6.4,6.4,0,0,1-.6,2.7l-.61,1.31a.91.91,0,0,0-.09.39V81a7.62,7.62,0,0,1-2.12,5.34A6.76,6.76,0,0,1,70.46,88.44Z"/><path class="e6c41c24-ef60-4fdf-a296-1b8e50ac4d3d" d="M15.46,63.12a.9.9,0,0,0,.83-1.25c-1-2.31-.12-3.67.29-4.16h3.23a.9.9,0,0,0,.9-.9V43.31a.9.9,0,0,0-.9-.9H.9a.9.9,0,0,0-.9.9V56.82a.9.9,0,0,0,.9.9h9.94C11.26,63.06,15.41,63.12,15.46,63.12ZM1.8,44.21H18.91V55.92h-2.7a.9.9,0,0,0-.56.2,5,5,0,0,0-1.53,4.72c-.74-.54-1.51-1.66-1.51-4a.9.9,0,0,0-.9-.9H1.8Z"/><path class="e6c41c24-ef60-4fdf-a296-1b8e50ac4d3d" d="M74.74,46.91a.9.9,0,0,0-.9.9v3.6a.9.9,0,1,0,1.8,0v-3.6A.9.9,0,0,0,74.74,46.91Z"/></svg>