<svg xmlns="http://www.w3.org/2000/svg" viewBox="0 0 74.31 108.24"><defs><style>.e9f8b658-65ba-4d21-a61c-1549bc76a5f7{fill:#fff;}.\38 6bf01b5-93f0-4201-86da-a1c8ea495316{fill:#040a29;}.\38 758bc1d-7dd8-4fd4-9e75-6a299a9328bd,.fa96267e-3e1b-4556-8eeb-795f8d250578{fill:#34c4b3;}.fa96267e-3e1b-4556-8eeb-795f8d250578{stroke:#040a29;stroke-linecap:round;stroke-linejoin:round;stroke-width:2px;}</style></defs><title>features</title><g id="a9fe7af1-8f4c-4ec2-a216-2ff26c1dfad1" data-name="Layer 3"><path class="e9f8b658-65ba-4d21-a61c-1549bc76a5f7" d="M73.11,85.12a2,2,0,0,1-.92,2.68L32.94,107a2,2,0,0,1-2.68-.92L1.48,47.39a6,6,0,0,1-.32-3.71l8.84-30a1.81,1.81,0,0,1,2.43-1.19L41.59,23.86a6,6,0,0,1,2.74,2.53Z"/><path class="86bf01b5-93f0-4201-86da-a1c8ea495316" d="M32.06,108.24a3,3,0,0,1-1-.16,3,3,0,0,1-1.72-1.52L.58,47.83a7,7,0,0,1-.38-4.44L9,13.36a2.81,2.81,0,0,1,3.75-1.84L42,22.93a7,7,0,0,1,3.28,3L74,84.68a3,3,0,0,1-1.37,4L33.38,107.93A3,3,0,0,1,32.06,108.24ZM11.74,13.32a.79.79,0,0,0-.35.08.83.83,0,0,0-.43.52L2.12,44a5,5,0,0,0,.25,3l28.78,58.73a1,1,0,0,0,.57.5,1,1,0,0,0,.76,0L71.75,86.9a1,1,0,0,0,.46-1.34h0L43.43,26.83a5,5,0,0,0-2.21-2L12.07,13.38A.9.9,0,0,0,11.74,13.32Z"/><circle class="8758bc1d-7dd8-4fd4-9e75-6a299a9328bd" cx="20.68" cy="32.36" r="9.19" transform="translate(-12.13 12.4) rotate(-26.11)"/><path class="86bf01b5-93f0-4201-86da-a1c8ea495316" d="M20.7,42.55a10.19,10.19,0,1,1,4.47-1A10.21,10.21,0,0,1,20.7,42.55Zm0-18.38A8.19,8.19,0,1,0,28,28.75,8.14,8.14,0,0,0,20.67,24.17Z"/><circle class="e9f8b658-65ba-4d21-a61c-1549bc76a5f7" cx="20.68" cy="32.36" r="4.38" transform="translate(-12.13 12.4) rotate(-26.11)"/><line class="e9f8b658-65ba-4d21-a61c-1549bc76a5f7" x1="20.59" y1="32.16" x2="5.56" y2="1.5"/><path class="86bf01b5-93f0-4201-86da-a1c8ea495316" d="M20.59,33.66a1.5,1.5,0,0,1-1.35-.84L4.22,2.16A1.5,1.5,0,1,1,6.91.84l15,30.66a1.5,1.5,0,0,1-1.35,2.16Z"/><path class="fa96267e-3e1b-4556-8eeb-795f8d250578" d="M32.4,53l1.87,3.82c4.21-1.44,8.4-.1,10.43,4L40.1,63.08c-1-1.95-3-2.55-5.3-1.42-2.05,1-3.15,3-2.28,4.74.39.79,1.33,2,4.35,1.4l3.5-.6c6.29-1.21,9.27,1.22,10.48,4.25,1.79,4.21-.3,8.33-4.16,10.66l2,4.07L46.2,87.4l-2-4.07c-4.82,1.74-9.37,0-11.28-3.86l4.61-2.26c1,1.77,3.33,2.7,6,1.39,2.49-1.22,3.36-3.26,2.64-5s-2.35-2.24-5.08-1.71l-3.45.71c-6.18,1.06-8.58-1.65-9.66-3.85-2-4-.13-8.38,3.78-10.79l-1.86-3.78Z"/><circle class="8758bc1d-7dd8-4fd4-9e75-6a299a9328bd" cx="52.04" cy="22.08" r="17.05"/><path class="86bf01b5-93f0-4201-86da-a1c8ea495316" d="M52,40.12a18,18,0,1,1,18-18A18.07,18.07,0,0,1,52,40.12ZM52,6a16,16,0,1,0,16,16A16.07,16.07,0,0,0,52,6Z"/><path class="8758bc1d-7dd8-4fd4-9e75-6a299a9328bd" d="M61.07,25.28a1.24,1.24,0,0,0-1.74-.21l-6.05,4.75v-18a1.24,1.24,0,1,0-2.48,0v18l-6.05-4.75a1.24,1.24,0,0,0-1.53,2l8.06,6.33h0a1.23,1.23,0,0,0,.32.17l.06,0a1.12,1.12,0,0,0,.72,0l.06,0a1.23,1.23,0,0,0,.32-.17h0L60.86,27A1.24,1.24,0,0,0,61.07,25.28Z"/><path class="86bf01b5-93f0-4201-86da-a1c8ea495316" d="M52,34.61a2.2,2.2,0,0,1-.65-.1l-.11,0a2.27,2.27,0,0,1-.47-.24l-.12-.08L42.6,27.81a2.24,2.24,0,1,1,2.76-3.52l4.44,3.48v-16a2.24,2.24,0,1,1,4.48,0v16l4.44-3.48a2.24,2.24,0,0,1,3.14.38h0a2.24,2.24,0,0,1-.38,3.14l-8.2,6.42a2.23,2.23,0,0,1-.47.24l-.12,0A2.2,2.2,0,0,1,52,34.61Zm-.24-2.12.24.12.22-.11,8-6.27a.24.24,0,1,0-.3-.38l-7.67,6V11.79c0-.26-.48-.26-.48,0V31.88l-7.67-6a.24.24,0,1,0-.3.38Z"/><path class="e9f8b658-65ba-4d21-a61c-1549bc76a5f7" d="M51.62,32.79l.06,0a.6.6,0,0,0,.16.09.47.47,0,0,0,.37,0,.59.59,0,0,0,.18-.09l.07-.05,8-6.28a.59.59,0,0,0,.1-.83h0a.59.59,0,0,0-.83-.1l-7.1,5.58V11.79a.59.59,0,1,0-1.18,0V31.16l-7.1-5.58a.59.59,0,0,0-.73.93Z"/></g></svg>