<svg xmlns="http://www.w3.org/2000/svg" viewBox="0 0 100.82 108.53"><defs><style>.a31f9956-2872-495a-b8cf-7c1f43e026ec{fill:#34c4b3;}.\32 8127738-71a0-4696-a892-2f5865ff2785{fill:#040a29;}.\36 cabbc24-9254-49e7-8364-0f3a6f38a211{fill:#fff;}</style></defs><title>features</title><g id="0d695fa5-dfc8-475f-9567-9f1ec36ad644" data-name="Layer 3"><path class="a31f9956-2872-495a-b8cf-7c1f43e026ec" d="M54.84,28.78A33.77,33.77,0,1,0,88.61,62.55,33.8,33.8,0,0,0,54.84,28.78Z"/><path class="28127738-71a0-4696-a892-2f5865ff2785" d="M54.84,108.53a46,46,0,0,1-9.48-91l.4-.08V10.81h-1.5a1,1,0,0,1-1-1V6.48A6.49,6.49,0,0,1,49.75,0H59.93a6.49,6.49,0,0,1,6.48,6.48V9.82a1,1,0,0,1-1,1h-1.5v6.65l.4.08a45.48,45.48,0,0,1,18.27,8.36l.35.26,3.73-3.73a2.58,2.58,0,0,1,3.64,0l4.22,4.22a2.57,2.57,0,0,1,0,3.64L90.85,34l.27.35a45.49,45.49,0,0,1,9.7,28.22A46,46,0,0,1,54.84,108.53Zm0-90a44,44,0,1,0,44,44A44.05,44.05,0,0,0,54.84,18.54Zm33.23,5.31-3.57,3.57.41.35a46.59,46.59,0,0,1,4.33,4.28l.35.4,3.69-3.69,0-.27a.59.59,0,0,0-.16-.41L88.76,23.7l-.27,0h-.21ZM47.74,17.11l.57-.08a46,46,0,0,1,13.07,0l.57.08V10.92H47.74ZM49.75,2a4.51,4.51,0,0,0-4.5,4.5V8.83H64.43V6.48A4.51,4.51,0,0,0,59.93,2Z"/><path class="28127738-71a0-4696-a892-2f5865ff2785" d="M54.84,98.29A35.75,35.75,0,1,1,90.59,62.55,35.79,35.79,0,0,1,54.84,98.29Zm0-69.51A33.77,33.77,0,1,0,88.61,62.55,33.8,33.8,0,0,0,54.84,28.78Z"/><path d="M54.84,93.87a1,1,0,0,1-1-1V87.11a1,1,0,1,1,2,0v5.77A1,1,0,0,1,54.84,93.87Z"/><path d="M54.84,39a1,1,0,0,1-1-1V32.22a1,1,0,1,1,2,0V38A1,1,0,0,1,54.84,39Z"/><path d="M76.29,85a1,1,0,0,1-.7-.29l-4.08-4.08a1,1,0,0,1,1.4-1.4L77,83.29a1,1,0,0,1-.7,1.69Z"/><path d="M37.47,46.17a1,1,0,0,1-.7-.29L32.69,41.8a1,1,0,0,1,1.4-1.4l4,4a1,1,0,0,1-.66,1.73Z"/><path d="M79.4,63.54a1,1,0,0,1,0-2h5.77a1,1,0,0,1,0,2Z"/><path d="M24.51,63.53a1,1,0,0,1,0-2h5.77a1,1,0,0,1,0,2Z"/><path d="M72.21,46.17a1,1,0,0,1-1-1,1,1,0,0,1,.31-.71l4.06-4.06A1,1,0,1,1,77,41.8l-4.08,4.08A1,1,0,0,1,72.21,46.17Z"/><path d="M33.39,85a1,1,0,0,1-.7-1.69l4.08-4.08a1,1,0,1,1,1.4,1.4l-4.08,4.08A1,1,0,0,1,33.39,85Z"/><polygon class="6cabbc24-9254-49e7-8364-0f3a6f38a211" points="61 46.03 48 63.03 54 63.03 48 80.03 63 59.03 57 59.03 61 46.03"/><path d="M10,37a1,1,0,0,1-.41-.09l-2-.9a1,1,0,1,1,.81-1.83l2,.9A1,1,0,0,1,10,37Z"/><path d="M4.46,34.57a1,1,0,0,1-.41-.09L.59,32.94a1,1,0,1,1,.81-1.83l3.46,1.54a1,1,0,0,1-.41,1.91Z"/><path d="M5.92,22.47a1,1,0,0,1-.64-.23L2.36,19.8a1,1,0,1,1,1.28-1.54L6.57,20.7a1,1,0,0,1-.64,1.77Z"/><path d="M15,30a1,1,0,0,1-.64-.23L9,25.29a1,1,0,1,1,1.28-1.54l5.41,4.51A1,1,0,0,1,15,30Z"/><path d="M21,25a1,1,0,0,1-.92-.61l-3-7a1,1,0,0,1,1.84-.79l3,7A1,1,0,0,1,21,25Z"/><path class="28127738-71a0-4696-a892-2f5865ff2785" d="M48,81a1,1,0,0,1-.94-1.33L52.59,64H48a1,1,0,0,1-.79-1.61l13-17a1,1,0,0,1,1.75.9L58.35,58H63a1,1,0,0,1,.81,1.58l-15,21A1,1,0,0,1,48,81Zm2-19h4a1,1,0,0,1,.94,1.33L51.3,73.69,61.06,60H57a1,1,0,0,1-1-1.29l2.36-7.66Z"/></g></svg>