<?xml version="1.0" encoding="utf-8"?>
<!-- Generator: Adobe Illustrator 21.1.0, SVG Export Plug-In . SVG Version: 6.00 Build 0)  -->
<svg version="1.1" xmlns="http://www.w3.org/2000/svg" xmlns:xlink="http://www.w3.org/1999/xlink" x="0px" y="0px"
	 viewBox="0 0 107.9 122.1" style="enable-background:new 0 0 107.9 122.1;" xml:space="preserve">
<style type="text/css">
	.st0{fill:#003955;}
	.st1{fill:#040A29;}
	.st2{clip-path:url(#SVGID_2_);}
	.st3{clip-path:url(#SVGID_4_);}
	.st4{clip-path:url(#SVGID_6_);}
	.st5{clip-path:url(#SVGID_8_);}
	.st6{clip-path:url(#SVGID_10_);}
	.st7{clip-path:url(#SVGID_12_);}
	.st8{clip-path:url(#SVGID_14_);}
	.st9{clip-path:url(#SVGID_16_);}
	.st10{clip-path:url(#SVGID_18_);}
	.st11{clip-path:url(#SVGID_20_);}
	.st12{clip-path:url(#SVGID_22_);}
	.st13{clip-path:url(#SVGID_24_);}
	.st14{clip-path:url(#SVGID_26_);}
	.st15{clip-path:url(#SVGID_28_);}
	.st16{clip-path:url(#SVGID_30_);}
	.st17{clip-path:url(#SVGID_32_);}
	.st18{clip-path:url(#SVGID_34_);}
	.st19{clip-path:url(#SVGID_36_);}
	.st20{clip-path:url(#SVGID_38_);}
	.st21{clip-path:url(#SVGID_40_);}
	.st22{clip-path:url(#SVGID_42_);}
	.st23{clip-path:url(#SVGID_44_);}
	.st24{clip-path:url(#SVGID_46_);}
	.st25{fill:#34C4B3;}
	.st26{fill:none;stroke:#FFFFFF;stroke-width:2;stroke-linecap:round;stroke-linejoin:round;stroke-miterlimit:10;}
	.st27{fill:#79DDD2;}
	.st28{fill:#FFFFFF;}
	.st29{fill:none;stroke:#FFFFFF;stroke-width:2;stroke-miterlimit:10;}
	.st30{fill:#FFFFFF;stroke:#FFFFFF;stroke-width:2;stroke-linecap:round;stroke-linejoin:round;stroke-miterlimit:10;}
	.st31{fill:none;}
	.st32{fill:none;stroke:#FFFFFF;stroke-width:0.5;stroke-linecap:round;stroke-miterlimit:10;}
	.st33{fill:#F5EE33;}
	.st34{fill:#363842;}
	.st35{fill:#FFFFFF;stroke:#FFFFFF;stroke-width:0.75;stroke-miterlimit:10;}
	.st36{fill:#020A16;}
	.st37{fill:#122749;}
	.st38{fill:#262626;}
	.st39{fill:#34C4B3;stroke:#040A29;stroke-width:2;stroke-miterlimit:10;}
	.st40{fill:none;stroke:#040A29;stroke-width:2;stroke-miterlimit:10;}
	.st41{fill:#FFFFFF;stroke:#040A29;stroke-width:2;stroke-miterlimit:10;}
	.st42{fill:#8CA9F4;}
	.st43{fill:#6484EA;}
	.st44{clip-path:url(#SVGID_50_);}
	.st45{clip-path:url(#SVGID_52_);fill:#040A29;}
	.st46{clip-path:url(#SVGID_54_);}
	.st47{clip-path:url(#SVGID_56_);fill:#040A29;}
	.st48{clip-path:url(#SVGID_58_);}
	.st49{clip-path:url(#SVGID_60_);fill:#040A29;}
	.st50{clip-path:url(#SVGID_62_);}
	.st51{clip-path:url(#SVGID_64_);fill:#040A29;}
	.st52{clip-path:url(#SVGID_66_);}
	.st53{clip-path:url(#SVGID_68_);fill:#040A29;}
	.st54{clip-path:url(#SVGID_70_);}
	.st55{clip-path:url(#SVGID_72_);fill:#34C4B3;}
	.st56{clip-path:url(#SVGID_74_);}
	.st57{clip-path:url(#SVGID_76_);fill:#34C4B3;}
	.st58{clip-path:url(#SVGID_78_);}
	.st59{clip-path:url(#SVGID_80_);fill:#34C4B3;}
	.st60{clip-path:url(#SVGID_82_);}
	.st61{clip-path:url(#SVGID_84_);fill:#34C4B3;}
	.st62{clip-path:url(#SVGID_86_);}
	.st63{clip-path:url(#SVGID_88_);fill:#34C4B3;}
	.st64{clip-path:url(#SVGID_90_);}
	.st65{clip-path:url(#SVGID_92_);fill:#34C4B3;}
	.st66{clip-path:url(#SVGID_94_);}
	.st67{clip-path:url(#SVGID_96_);fill:#34C4B3;}
	.st68{fill:#34C4B3;stroke:#000000;stroke-width:2;stroke-linecap:round;stroke-linejoin:round;stroke-miterlimit:10;}
	.st69{fill:none;stroke:#122749;stroke-width:2;stroke-miterlimit:10;}
	.st70{fill:#50C7E2;}
	.st71{fill:#9FAEBB;}
	.st72{fill:#CCD4DB;}
	.st73{fill:#E4EAEF;}
	.st74{opacity:0.15;}
	.st75{display:none;opacity:0.15;}
	.st76{display:inline;fill:#34C4B3;}
	.st77{display:none;fill:#F4F5F7;}
	.st78{fill:none;stroke:#040A29;stroke-width:2;stroke-linecap:round;stroke-linejoin:round;stroke-miterlimit:10;}
	.st79{fill:#122648;}
	.st80{fill:#FFFFFF;stroke:#34C4B3;stroke-width:2;stroke-linecap:round;stroke-linejoin:round;}
	.st81{fill:#34C4B3;stroke:#040A29;stroke-width:2;stroke-linecap:round;stroke-linejoin:round;}
	.st82{fill:#FFFFFF;stroke:#040A29;stroke-width:1.5;stroke-linecap:round;stroke-linejoin:round;}
	.st83{fill:#FFFFFF;stroke:#040A29;stroke-linecap:round;stroke-linejoin:round;}
	.st84{fill:#34C4B3;stroke:#040A29;stroke-linecap:round;stroke-linejoin:round;}
	.st85{enable-background:new    ;}
	.st86{clip-path:url(#SVGID_98_);}
	.st87{clip-path:url(#SVGID_100_);enable-background:new    ;}
	.st88{clip-path:url(#SVGID_102_);}
	.st89{clip-path:url(#SVGID_104_);}
	.st90{opacity:0;clip-path:url(#SVGID_108_);}
	.st91{opacity:0;}
	.st92{clip-path:url(#SVGID_110_);}
	.st93{clip-path:url(#SVGID_108_);}
	.st94{clip-path:url(#SVGID_114_);}
	.st95{opacity:0;clip-path:url(#SVGID_118_);}
	.st96{clip-path:url(#SVGID_120_);}
	.st97{clip-path:url(#SVGID_118_);}
	.st98{clip-path:url(#SVGID_124_);}
	.st99{opacity:0;clip-path:url(#SVGID_128_);}
	.st100{clip-path:url(#SVGID_130_);}
	.st101{clip-path:url(#SVGID_128_);}
	.st102{clip-path:url(#SVGID_134_);}
	.st103{opacity:0;clip-path:url(#SVGID_138_);}
	.st104{clip-path:url(#SVGID_140_);}
	.st105{clip-path:url(#SVGID_138_);}
	.st106{clip-path:url(#SVGID_144_);}
	.st107{fill:none;stroke:#000000;stroke-width:2;stroke-linecap:round;stroke-linejoin:round;stroke-miterlimit:10;}
	.st108{fill:none;stroke:#000000;stroke-width:2;stroke-miterlimit:10;}
	.st109{fill:none;stroke:#34C4B3;stroke-width:2;stroke-linecap:round;stroke-linejoin:round;stroke-miterlimit:10;}
	.st110{fill:#7ADDD2;}
	.st111{fill:#34C4B3;stroke:#040A29;stroke-width:4;stroke-miterlimit:10;}
	.st112{fill:#1E9FC4;}
	.st113{fill:#FFFFFF;stroke:#040A29;stroke-width:2;stroke-linejoin:round;stroke-miterlimit:10;}
	.st114{fill:#FFFFFF;stroke:#040A29;stroke-width:3;stroke-linecap:round;stroke-linejoin:round;stroke-miterlimit:10;}
	.st115{fill:none;stroke:#FFFFFF;stroke-miterlimit:10;}
	.st116{fill:#79DDD2;stroke:#FFFFFF;stroke-width:2;stroke-miterlimit:10;}
	.st117{fill:none;stroke:#040A29;stroke-width:2;stroke-linecap:round;stroke-miterlimit:10;}
	.st118{fill:#6484EA;stroke:#040A29;stroke-miterlimit:10;}
	.st119{fill:#8CA9F4;stroke:#040A29;stroke-width:2;stroke-miterlimit:10;}
</style>
<g id="Layer_1">
	<g>
		<path class="st42" d="M106.5,92.6c0-0.4-0.3-1.3-0.6-1.8c-1-0.5-16.4-8.7-30,1.1c-5.7,4.1-11.3,4.9-15.8,4.5
			c0.9,0.1,1.9,0.2,2.9,0.2c3,0,6.3-0.6,9.7-2c2.1-0.8,4-1.7,5.8-2.9l0,0c0.1,0.5,0.1,1,0.1,1.6c0,5.8-4.7,10.6-10.6,10.6
			c-4.8,0-8.8-3.1-10.1-7.6c-4.5-0.8-7.6-2.8-7.8-2.9L50,93.3c0,0,0,0,0,0c0.9,9.6,4.5,17.6,12.8,22.9c6.6,4.2,14.3,5.9,21.9,4.2
			c0.2-0.1,0.5-0.2,0.7-0.2c0.8-0.2,1.6-0.4,2.3-0.6c2.5-0.8,5.2-2,7.7-3.3C102.5,110.8,106.8,102.1,106.5,92.6z M90.3,107.6
			c-1.6,0-2.9-1.3-2.9-2.8c0-1.6,1.3-2.9,2.9-2.9s2.9,1.3,2.9,2.9C93.1,106.3,91.9,107.6,90.3,107.6z"/>
		<path class="st43" d="M66.9,20.1l-30,82h12.5c-1-7.4,0.3-15,1-19.7c1.2-8.1,8.3-13.8,16-17c0.5-0.2,1-0.3,1.5-0.4V36.8h10V20.1
			H66.9z"/>
		<path class="st1" d="M94.4,34.6c-1,0-1.9-0.9-1.9-1.9c0-0.5-1.1-1.6-1.6-1.6c-1,0-1.9-0.9-1.9-1.9s0.9-1.9,1.9-1.9
			c0.5,0,1.6-1.1,1.6-1.6c0-1,0.9-1.9,1.9-1.9s1.9,0.9,1.9,1.9c0,0.5,1.1,1.6,1.6,1.6c1,0,1.9,0.9,1.9,1.9s-0.9,1.9-1.9,1.9
			c-0.5,0-1.6,1.1-1.6,1.6c0,0.1,0,0.1,0,0.2C96.1,33.9,95.3,34.6,94.4,34.6z M94.5,32.7L94.5,32.7L94.5,32.7z"/>
		<path class="st1" d="M5.4,69.6c-1,0-1.9-0.9-1.9-1.9c0-0.5-1.1-1.6-1.6-1.6c-1,0-1.9-0.9-1.9-1.9s0.9-1.9,1.9-1.9
			c0.5,0,1.6-1.1,1.6-1.6c0-1,0.9-1.9,1.9-1.9s1.9,0.9,1.9,1.9c0,0.5,1.1,1.6,1.6,1.6c1,0,1.9,0.9,1.9,1.9s-0.9,1.9-1.9,1.9
			c-0.5,0-1.6,1.1-1.6,1.6c0,0.1,0,0.1,0,0.2C7.1,68.9,6.3,69.6,5.4,69.6z M5.5,67.7L5.5,67.7L5.5,67.7z"/>
		<path class="st1" d="M68.4,10.5c-1,0-1.8-0.8-1.8-1.9c0-0.5-1.1-1.6-1.5-1.6c-1,0-1.8-0.8-1.8-1.9c0-1,0.8-1.8,1.9-1.8
			c0.5,0,1.6-1.1,1.6-1.5c0-1,0.8-1.8,1.9-1.8c1,0,1.8,0.8,1.8,1.9c0,0.5,1.1,1.6,1.5,1.6c1,0,1.8,0.8,1.8,1.9c0,1-0.8,1.8-1.9,1.8
			c-0.5,0-1.6,1.1-1.6,1.5c0,0.1,0,0.2,0,0.2C70.1,9.7,69.3,10.5,68.4,10.5z M68.3,8.5C68.3,8.5,68.3,8.5,68.3,8.5L68.3,8.5
			C68.3,8.5,68.3,8.5,68.3,8.5z"/>
		<path class="st1" d="M78,122.1c-16.5,0-29.9-13.4-29.9-29.9c0-0.6,0.4-1,1-1s1,0.4,1,1c0,15.4,12.5,27.9,27.9,27.9
			s27.9-12.5,27.9-27.9c0-0.6,0.4-1,1-1s1,0.4,1,1C107.9,108.7,94.5,122.1,78,122.1z"/>
		<path class="st1" d="M106.9,93.2c-0.6,0-1-0.4-1-1c0-11.6-7.3-22.1-18.1-26.1c-0.4-0.1-0.6-0.5-0.6-0.9V37.4H68.9v27.8
			c0,0.4-0.3,0.8-0.6,0.9c-10.8,4.1-18.1,14.5-18.1,26.1c0,0.6-0.4,1-1,1s-1-0.4-1-1c0-12.2,7.5-23.2,18.8-27.7V36.4
			c0-0.6,0.4-1,1-1h20.2c0.6,0,1,0.4,1,1v28.1c11.3,4.5,18.8,15.6,18.8,27.7C107.9,92.8,107.5,93.2,106.9,93.2z"/>
		<g>
			<defs>
				<path id="SVGID_49_" d="M60.5,14c-0.4,0-0.8-0.3-0.8-0.7l-0.2-0.2c-0.4,0-0.7-0.4-0.7-0.8c0-0.4,0.3-0.8,0.7-0.8l0.2-0.2
					c0-0.4,0.4-0.7,0.8-0.7c0.4,0,0.8,0.3,0.8,0.7l0.2,0.2c0.4,0,0.7,0.4,0.7,0.8c0,0.4-0.3,0.8-0.7,0.8l-0.2,0.2
					C61.2,13.7,60.9,14,60.5,14z"/>
			</defs>
			<use xlink:href="#SVGID_49_"  style="overflow:visible;fill:#040A29;"/>
			<clipPath id="SVGID_2_">
				<use xlink:href="#SVGID_49_"  style="overflow:visible;"/>
			</clipPath>
			<g class="st2">
				<defs>
					<rect id="SVGID_51_" x="-1143.1" y="-3986.9" width="1600" height="7919"/>
				</defs>
				<use xlink:href="#SVGID_51_"  style="overflow:visible;fill:#040A29;"/>
				<clipPath id="SVGID_4_">
					<use xlink:href="#SVGID_51_"  style="overflow:visible;"/>
				</clipPath>
				<rect x="53.8" y="5.6" style="clip-path:url(#SVGID_4_);fill:#040A29;" width="13.4" height="13.4"/>
			</g>
		</g>
		<g>
			<defs>
				<path id="SVGID_53_" d="M75.5,49c-0.4,0-0.8-0.3-0.8-0.7l-0.2-0.2c-0.4,0-0.7-0.4-0.7-0.8c0-0.4,0.3-0.8,0.7-0.8l0.2-0.2
					c0-0.4,0.4-0.7,0.8-0.7s0.8,0.3,0.8,0.7l0.2,0.2c0.4,0,0.7,0.4,0.7,0.8c0,0.4-0.3,0.8-0.7,0.8l-0.2,0.2
					C76.2,48.7,75.9,49,75.5,49z"/>
			</defs>
			<use xlink:href="#SVGID_53_"  style="overflow:visible;fill:#040A29;"/>
			<clipPath id="SVGID_6_">
				<use xlink:href="#SVGID_53_"  style="overflow:visible;"/>
			</clipPath>
			<g class="st4">
				<defs>
					<rect id="SVGID_55_" x="-1128.1" y="-3951.9" width="1600" height="7919"/>
				</defs>
				<use xlink:href="#SVGID_55_"  style="overflow:visible;fill:#040A29;"/>
				<clipPath id="SVGID_8_">
					<use xlink:href="#SVGID_55_"  style="overflow:visible;"/>
				</clipPath>
				<rect x="68.8" y="40.6" style="clip-path:url(#SVGID_8_);fill:#040A29;" width="13.4" height="13.4"/>
			</g>
		</g>
		<g>
			<defs>
				<path id="SVGID_57_" d="M90.5,77c-0.4,0-0.8-0.3-0.8-0.7l-0.2-0.2c-0.4,0-0.7-0.4-0.7-0.8c0-0.4,0.3-0.8,0.7-0.8l0.2-0.2
					c0-0.4,0.4-0.7,0.8-0.7s0.8,0.3,0.8,0.7l0.2,0.2c0.4,0,0.7,0.4,0.7,0.8c0,0.4-0.3,0.8-0.7,0.8l-0.2,0.2
					C91.2,76.7,90.9,77,90.5,77z"/>
			</defs>
			<use xlink:href="#SVGID_57_"  style="overflow:visible;fill:#040A29;"/>
			<clipPath id="SVGID_10_">
				<use xlink:href="#SVGID_57_"  style="overflow:visible;"/>
			</clipPath>
			<g class="st6">
				<defs>
					<rect id="SVGID_59_" x="-1113.1" y="-3923.9" width="1600" height="7919"/>
				</defs>
				<use xlink:href="#SVGID_59_"  style="overflow:visible;fill:#040A29;"/>
				<clipPath id="SVGID_12_">
					<use xlink:href="#SVGID_59_"  style="overflow:visible;"/>
				</clipPath>
				<rect x="83.8" y="68.6" style="clip-path:url(#SVGID_12_);fill:#040A29;" width="13.4" height="13.4"/>
			</g>
		</g>
		<g>
			<defs>
				<path id="SVGID_61_" d="M85.5,81c-0.4,0-0.8-0.3-0.8-0.7l-0.2-0.2c-0.4,0-0.7-0.4-0.7-0.8c0-0.4,0.3-0.8,0.7-0.8l0.2-0.2
					c0-0.4,0.4-0.7,0.8-0.7s0.8,0.3,0.8,0.7l0.2,0.2c0.4,0,0.7,0.4,0.7,0.8c0,0.4-0.3,0.8-0.7,0.8l-0.2,0.2
					C86.2,80.7,85.9,81,85.5,81z"/>
			</defs>
			<use xlink:href="#SVGID_61_"  style="overflow:visible;fill:#040A29;"/>
			<clipPath id="SVGID_14_">
				<use xlink:href="#SVGID_61_"  style="overflow:visible;"/>
			</clipPath>
			<g class="st8">
				<defs>
					<rect id="SVGID_63_" x="-1118.1" y="-3919.9" width="1600" height="7919"/>
				</defs>
				<use xlink:href="#SVGID_63_"  style="overflow:visible;fill:#040A29;"/>
				<clipPath id="SVGID_16_">
					<use xlink:href="#SVGID_63_"  style="overflow:visible;"/>
				</clipPath>
				<rect x="78.8" y="72.6" style="clip-path:url(#SVGID_16_);fill:#040A29;" width="13.4" height="13.4"/>
			</g>
		</g>
		<g>
			<defs>
				<path id="SVGID_65_" d="M63.5,82c-0.4,0-0.8-0.3-0.8-0.7l-0.2-0.2c-0.4,0-0.7-0.4-0.7-0.8c0-0.4,0.3-0.8,0.7-0.8l0.2-0.2
					c0-0.4,0.4-0.7,0.8-0.7c0.4,0,0.8,0.3,0.8,0.7l0.2,0.2c0.4,0,0.7,0.4,0.7,0.8c0,0.4-0.3,0.8-0.7,0.8l-0.2,0.2
					C64.2,81.7,63.9,82,63.5,82z"/>
			</defs>
			<use xlink:href="#SVGID_65_"  style="overflow:visible;fill:#040A29;"/>
			<clipPath id="SVGID_18_">
				<use xlink:href="#SVGID_65_"  style="overflow:visible;"/>
			</clipPath>
			<g class="st10">
				<defs>
					<rect id="SVGID_67_" x="-1140.1" y="-3918.9" width="1600" height="7919"/>
				</defs>
				<use xlink:href="#SVGID_67_"  style="overflow:visible;fill:#040A29;"/>
				<clipPath id="SVGID_20_">
					<use xlink:href="#SVGID_67_"  style="overflow:visible;"/>
				</clipPath>
				<rect x="56.8" y="73.6" style="clip-path:url(#SVGID_20_);fill:#040A29;" width="13.4" height="13.4"/>
			</g>
		</g>
		<path class="st1" d="M63,96.6c-8.3,0-14.3-4.1-14.4-4.2l1.1-1.6c0.5,0.4,12.9,8.8,26.5-0.3c14.8-9.9,30.9-0.1,31.1,0l-1.1,1.7
			c-0.2-0.1-15.2-9.2-28.9,0C72.3,95.5,67.3,96.6,63,96.6z"/>
		<path class="st1" d="M68.2,105.7c-6.2,0-11.4-4.5-12.4-10.7l-0.2-1.3l1.3,0.2c0.6,0.1,1.2,0.1,1.8,0.1l0.1,0
			c6.3,1,13.3-0.5,18.7-4.2l0.2-0.1l2.3-1l0.3,1.1c0.3,1.1,0.4,2.2,0.4,3.2C80.7,100.1,75.1,105.7,68.2,105.7z M58,96.1
			c1.3,4.5,5.3,7.7,10.1,7.7c5.8,0,10.6-4.7,10.6-10.6c0-0.5,0-1-0.1-1.6l0,0c-5.8,3.8-13.2,5.5-20,4.4C58.4,96.1,58.2,96.1,58,96.1
			z"/>
		<path class="st1" d="M90.3,109.6c-2.7,0-4.9-2.2-4.9-4.8s2.2-4.9,4.9-4.9s4.9,2.2,4.9,4.9S93,109.6,90.3,109.6z M90.3,101.9
			c-1.6,0-2.9,1.3-2.9,2.9c0,1.6,1.3,2.8,2.9,2.8s2.9-1.3,2.9-2.8C93.1,103.2,91.9,101.9,90.3,101.9z"/>
		<path class="st1" d="M50.5,103.1H27.9c-0.3,0-0.6-0.1-0.7-0.3l-9-10c-0.2-0.2-0.3-0.4-0.3-0.7v-72c0-0.6,0.4-1,1-1h59
			c0.6,0,1,0.4,1,1v15c0,0.6-0.4,1-1,1s-1-0.4-1-1v-14h-57v70.6l8.4,9.4h22.2c0.6,0,1,0.4,1,1S51.1,103.1,50.5,103.1z"/>
		<path class="st1" d="M27.9,103.1c-0.6,0-1-0.4-1-1v-9h-8c-0.6,0-1-0.4-1-1s0.4-1,1-1h9c0.6,0,1,0.4,1,1v10
			C28.9,102.7,28.5,103.1,27.9,103.1z"/>
		<path class="st1" d="M66.9,46.1H49.1c-0.6,0-1-0.4-1-1s0.4-1,1-1h17.8c0.6,0,1,0.4,1,1S67.5,46.1,66.9,46.1z"/>
		<path class="st1" d="M45.9,46.1h-20c-0.6,0-1-0.4-1-1s0.4-1,1-1h20c0.6,0,1,0.4,1,1S46.5,46.1,45.9,46.1z"/>
		<path class="st1" d="M66.9,52.1H54.1c-0.6,0-1-0.4-1-1s0.4-1,1-1h12.8c0.6,0,1,0.4,1,1S67.5,52.1,66.9,52.1z"/>
		<path class="st1" d="M50,52.1H37.9c-0.6,0-1-0.4-1-1s0.4-1,1-1H50c0.6,0,1,0.4,1,1S50.6,52.1,50,52.1z"/>
		<path class="st1" d="M34.4,52.1h-8.5c-0.6,0-1-0.4-1-1s0.4-1,1-1h8.5c0.6,0,1,0.4,1,1S35,52.1,34.4,52.1z"/>
		<path class="st1" d="M66.9,59.1H49.7c-0.6,0-1-0.4-1-1s0.4-1,1-1h17.2c0.6,0,1,0.4,1,1S67.5,59.1,66.9,59.1z"/>
		<path class="st1" d="M46.4,59.1h-12c-0.6,0-1-0.4-1-1s0.4-1,1-1h12c0.6,0,1,0.4,1,1S47,59.1,46.4,59.1z"/>
		<path class="st1" d="M31.1,59.1h-5.2c-0.6,0-1-0.4-1-1s0.4-1,1-1h5.2c0.6,0,1,0.4,1,1S31.6,59.1,31.1,59.1z"/>
		<path class="st1" d="M59.5,71.1h-5.1c-0.6,0-1-0.4-1-1s0.4-1,1-1h5.1c0.6,0,1,0.4,1,1S60,71.1,59.5,71.1z"/>
		<path class="st1" d="M50.9,71.1H39.5c-0.6,0-1-0.4-1-1s0.4-1,1-1h11.4c0.6,0,1,0.4,1,1S51.5,71.1,50.9,71.1z"/>
		<path class="st1" d="M36.3,71.1H25.9c-0.6,0-1-0.4-1-1s0.4-1,1-1h10.4c0.6,0,1,0.4,1,1S36.9,71.1,36.3,71.1z"/>
		<path class="st1" d="M54.1,77.1h-9.3c-0.6,0-1-0.4-1-1s0.4-1,1-1h9.3c0.6,0,1,0.4,1,1S54.6,77.1,54.1,77.1z"/>
		<path class="st1" d="M41.4,77.1H25.9c-0.6,0-1-0.4-1-1s0.4-1,1-1h15.5c0.6,0,1,0.4,1,1S42,77.1,41.4,77.1z"/>
		<path class="st1" d="M50,86.1H36.9c-0.6,0-1-0.4-1-1s0.4-1,1-1H50c0.6,0,1,0.4,1,1S50.6,86.1,50,86.1z"/>
		<path class="st1" d="M33.2,86.1h-7.3c-0.6,0-1-0.4-1-1s0.4-1,1-1h7.3c0.6,0,1,0.4,1,1S33.8,86.1,33.2,86.1z"/>
		<path class="st43" d="M91.6,29.2c1.2,0.4,2.5,1.6,2.8,2.8c0.4-1.2,1.6-2.5,2.8-2.8c-1.2-0.4-2.5-1.6-2.8-2.8
			C94,27.6,92.8,28.8,91.6,29.2z"/>
		<path class="st43" d="M65.9,5.2c1.1,0.4,2.2,1.6,2.5,2.7c0.4-1.1,1.6-2.2,2.7-2.5c-1.1-0.4-2.2-1.6-2.5-2.7
			C68.2,3.7,67.1,4.8,65.9,5.2z"/>
		<path class="st43" d="M2.6,64.2C3.8,64.6,5,65.8,5.4,67c0.4-1.2,1.6-2.5,2.8-2.8c-1.2-0.4-2.5-1.6-2.8-2.8
			C5,62.6,3.8,63.8,2.6,64.2z"/>
	</g>
</g>
<g id="Layer_2">
	<g>
		<defs>
			<path id="SVGID_69_" d="M-451.1-353.6c0-0.6-0.2-1.1-0.7-1.5c-0.4-0.4-1-0.6-1.5-0.5c-1,0.1-1.8,1-1.8,2.1l0,3.7
				c-0.3,0.1-0.5,0.2-0.7,0.4c0,0-1,0.9-1.2,1.1c-0.2,0.2-0.3,0.3-0.5,0.5c-0.8,0.8-1.6,1.6-2.5,2.1c-0.2,0.1-0.4,0.2-0.6,0.3
				c-1,0.6-2,1.1-2.7,2.4c-0.6,1.1-0.8,2.5-0.8,4.3l-0.1,2.3c0,0.3,0.2,0.6,0.5,0.6h0c0.3,0,0.5-0.2,0.5-0.5l0.1-2.3c0,0,0,0,0,0
				c0-1.6,0.2-2.8,0.6-3.8c0.5-1,1.3-1.4,2.2-2c0.2-0.1,0.4-0.2,0.6-0.4c1-0.6,1.9-1.5,2.7-2.3c0.2-0.2,0.3-0.3,0.5-0.5
				c0.2-0.2,0.9-0.8,1.2-1.1c0.3-0.3,0.8-0.3,1,0c0.1,0.1,0.2,0.3,0.2,0.5c0,0.2-0.1,0.4-0.2,0.5l-4.2,4.2c-0.2,0.2-0.2,0.5-0.1,0.7
				c0,0,0.1,0.1,0.1,0.2c0.2,0.2,0.4,0.2,0.6,0.1c0.2-0.1,0.3-0.3,0.3-0.5l0.2-0.2l3.6-3.6c0.6-0.6,0.8-1.4,0.4-2.2
				c-0.2-0.5-0.7-0.8-1.1-0.9l0-3.7c0-0.5,0.4-0.9,0.8-1c0,0,0.1,0,0.1,0c0.2,0,0.4,0.1,0.6,0.2c0.2,0.2,0.3,0.4,0.3,0.7v8.5
				c0,0.2-0.1,0.5-0.2,0.6l-0.3,0.3l-4.4,4.4c-0.2,0.2-0.3,0.3-0.5,0.4c-0.1,0.1-0.2,0.2-0.3,0.4l-0.4,2.7c0,0.3,0.2,0.6,0.5,0.6
				c0.3,0,0.5-0.2,0.5-0.5l0.3-2.4c0.2-0.1,0.3-0.3,0.5-0.4l4.7-4.7c0.1-0.1,0.3-0.3,0.4-0.4c0.1-0.1,0.2-0.2,0.1-0.3
				c0-0.1,0-0.4,0-0.6V-353.6z"/>
		</defs>
		<clipPath id="SVGID_22_">
			<use xlink:href="#SVGID_69_"  style="overflow:visible;"/>
		</clipPath>
		<g class="st12">
			<defs>
				<rect id="SVGID_71_" x="-1416.1" y="-7245.9" width="1600" height="8629"/>
			</defs>
			<clipPath id="SVGID_24_">
				<use xlink:href="#SVGID_71_"  style="overflow:visible;"/>
			</clipPath>
		</g>
	</g>
	<g>
		<defs>
			<path id="SVGID_73_" d="M-479.9-344.2c0.1,0.2,0.3,0.3,0.4,0.4l4.7,4.7c0.1,0.1,0.3,0.3,0.5,0.4l0.3,2.4c0,0.3,0.3,0.5,0.5,0.5
				c0.3,0,0.6-0.3,0.5-0.6l-0.4-2.7c0-0.2-0.1-0.3-0.3-0.4c-0.2-0.1-0.3-0.2-0.5-0.4l-4.4-4.4l-0.3-0.3c-0.2-0.1-0.2-0.4-0.2-0.6
				v-8.5c0-0.3,0.1-0.5,0.3-0.7c0.2-0.2,0.4-0.2,0.6-0.2c0,0,0.1,0,0.1,0c0.5,0,0.8,0.5,0.8,1v3.7c-0.5,0.1-0.9,0.4-1.1,0.9
				c-0.3,0.7-0.2,1.6,0.4,2.2l3.6,3.6l0.2,0.2c0,0.2,0.1,0.3,0.3,0.4c0.2,0.1,0.5,0.1,0.7-0.1c0.1-0.1,0.1-0.1,0.2-0.2
				c0.1-0.2,0.1-0.5-0.1-0.7l-4.2-4.2c-0.1-0.1-0.2-0.3-0.2-0.5c0-0.2,0.1-0.4,0.2-0.5c0.3-0.3,0.8-0.3,1.1,0c0.3,0.2,1,0.9,1.2,1.1
				c0.1,0.2,0.3,0.3,0.5,0.5c0.8,0.8,1.7,1.7,2.7,2.3c0.2,0.1,0.4,0.2,0.6,0.4c1,0.5,1.7,0.9,2.2,2c0.5,1,0.7,2.2,0.6,3.8
				c0,0,0,0,0,0l0.1,2.3c0,0.3,0.3,0.5,0.5,0.5c0.3,0,0.6-0.3,0.5-0.6l-0.1-2.3c0-1.8-0.2-3.2-0.8-4.3c-0.6-1.3-1.6-1.9-2.7-2.4
				c-0.2-0.1-0.4-0.2-0.6-0.3c-0.9-0.5-1.7-1.4-2.5-2.1c-0.2-0.2-0.3-0.3-0.5-0.5c-0.2-0.2-1.2-1.1-1.2-1.1
				c-0.2-0.2-0.5-0.3-0.7-0.4v-3.7c0-1.1-0.8-2-1.8-2.1c-0.9-0.1-1.8,0.5-2.1,1.4c-0.1,0.2-0.1,0.4-0.1,0.6v8.5c0,0.1,0,0.5,0,0.6
				C-480.1-344.3-480.1-344.3-479.9-344.2z"/>
		</defs>
		<clipPath id="SVGID_26_">
			<use xlink:href="#SVGID_73_"  style="overflow:visible;"/>
		</clipPath>
		<g class="st14">
			<defs>
				<rect id="SVGID_75_" x="-1416.1" y="-7245.9" width="1600" height="8629"/>
			</defs>
			<clipPath id="SVGID_28_">
				<use xlink:href="#SVGID_75_"  style="overflow:visible;"/>
			</clipPath>
		</g>
	</g>
	<g>
		<defs>
			<path id="SVGID_77_" d="M-459.5-358.6l-0.3,0.2c-0.4,0.2-0.6,0.6-0.5,1c0,0.3,0.1,0.6,0.1,0.9c0,0.3,0,0.6-0.1,0.9
				c-0.1,0.4,0.1,0.8,0.5,1l0.3,0.2c0.4,0.2,0.5,0.7,0.3,1.1l-0.4,0.7c-0.2,0.3-0.4,0.4-0.7,0.4c-0.1,0-0.3,0-0.4-0.1l-0.3-0.2
				c-0.2-0.1-0.3-0.1-0.5-0.1c-0.2,0-0.4,0.1-0.6,0.2c-0.5,0.4-1,0.7-1.5,0.9c-0.4,0.1-0.6,0.5-0.6,0.9v0.3c0,0.4-0.4,0.8-0.8,0.8
				h-0.9c-0.5,0-0.8-0.4-0.8-0.8v-0.3c0-0.4-0.3-0.8-0.6-0.9c-0.6-0.2-1.1-0.5-1.5-0.9c-0.2-0.1-0.4-0.2-0.6-0.2
				c-0.2,0-0.4,0-0.5,0.1l-0.3,0.2c-0.1,0.1-0.3,0.1-0.4,0.1c-0.3,0-0.6-0.1-0.7-0.4l-0.4-0.7c-0.2-0.4-0.1-0.9,0.3-1.1l0.3-0.2
				c0.4-0.2,0.6-0.6,0.5-1c0-0.3-0.1-0.6-0.1-0.9c0-0.3,0-0.6,0.1-0.9c0.1-0.4-0.1-0.8-0.5-1l-0.3-0.2c-0.4-0.2-0.5-0.7-0.3-1.1
				l0.4-0.7c0.2-0.3,0.4-0.4,0.7-0.4c0.1,0,0.3,0,0.4,0.1l0.3,0.2c0.2,0.1,0.3,0.1,0.5,0.1c0.2,0,0.4-0.1,0.6-0.2
				c0.5-0.4,1-0.7,1.5-0.9c0.4-0.1,0.6-0.5,0.6-0.9v-0.3c0-0.4,0.4-0.8,0.8-0.8h0.9c0.5,0,0.8,0.4,0.8,0.8v0.3
				c0,0.4,0.3,0.8,0.6,0.9c0.6,0.2,1.1,0.5,1.5,0.9c0.2,0.1,0.4,0.2,0.6,0.2c0.2,0,0.4,0,0.5-0.1l0.3-0.2c0.1-0.1,0.3-0.1,0.4-0.1
				c0.3,0,0.6,0.1,0.7,0.4l0.4,0.7C-459-359.4-459.1-358.9-459.5-358.6z M-459-357.8c0.9-0.5,1.2-1.6,0.7-2.4l-0.4-0.7
				c-0.3-0.5-0.9-0.9-1.6-0.9c-0.3,0-0.6,0.1-0.9,0.2l-0.3,0.2c0,0,0,0,0,0c-0.6-0.4-1.2-0.8-1.8-1c0,0,0,0,0,0v-0.3
				c0-1-0.8-1.8-1.8-1.8h-0.9c-1,0-1.8,0.8-1.8,1.8v0.3c0,0,0,0,0,0c-0.6,0.2-1.3,0.6-1.8,1c0,0,0,0,0,0c0,0,0,0,0,0l-0.3-0.2
				c-0.3-0.2-0.6-0.2-0.9-0.2c-0.6,0-1.2,0.3-1.6,0.9l-0.4,0.7c-0.5,0.8-0.2,1.9,0.7,2.4l0.3,0.2c0,0,0,0,0,0
				c-0.1,0.3-0.1,0.7-0.1,1s0,0.7,0.1,1c0,0,0,0,0,0l-0.3,0.2c-0.9,0.5-1.2,1.6-0.7,2.4l0.4,0.7c0.3,0.5,0.9,0.9,1.6,0.9
				c0.3,0,0.6-0.1,0.9-0.2l0.3-0.2c0,0,0,0,0,0c0.6,0.4,1.2,0.8,1.8,1c0,0,0,0,0,0v0.3c0,1,0.8,1.8,1.8,1.8h0.9c1,0,1.8-0.8,1.8-1.8
				v-0.3c0,0,0,0,0,0c0.6-0.2,1.3-0.6,1.8-1c0,0,0,0,0,0c0,0,0,0,0,0l0.3,0.2c0.3,0.2,0.6,0.2,0.9,0.2c0.6,0,1.2-0.3,1.6-0.9
				l0.4-0.7c0.5-0.8,0.2-1.9-0.7-2.4l-0.3-0.2c0,0,0,0,0,0c0.1-0.3,0.1-0.7,0.1-1c0-0.3,0-0.7-0.1-1c0,0,0,0,0,0L-459-357.8z"/>
		</defs>
		<clipPath id="SVGID_30_">
			<use xlink:href="#SVGID_77_"  style="overflow:visible;"/>
		</clipPath>
		<g class="st16">
			<defs>
				<rect id="SVGID_79_" x="-1416.1" y="-7245.9" width="1600" height="8629"/>
			</defs>
			<clipPath id="SVGID_32_">
				<use xlink:href="#SVGID_79_"  style="overflow:visible;"/>
			</clipPath>
		</g>
	</g>
	<g>
		<defs>
			<path id="SVGID_81_" d="M-465.1-354.5c-1.1,0-2.1-0.9-2.1-2.1s0.9-2.1,2.1-2.1s2.1,0.9,2.1,2.1S-464-354.5-465.1-354.5z
				 M-465.1-359.6c-1.7,0-3,1.3-3,3c0,1.6,1.3,3,3,3s3-1.3,3-3S-463.4-359.6-465.1-359.6z"/>
		</defs>
		<clipPath id="SVGID_34_">
			<use xlink:href="#SVGID_81_"  style="overflow:visible;"/>
		</clipPath>
		<g class="st18">
			<defs>
				<rect id="SVGID_83_" x="-1416.1" y="-7245.9" width="1600" height="8629"/>
			</defs>
			<clipPath id="SVGID_36_">
				<use xlink:href="#SVGID_83_"  style="overflow:visible;"/>
			</clipPath>
		</g>
	</g>
	<g>
		<defs>
			<path id="SVGID_85_" d="M-196-354.6c-0.6,0-1.1,0.5-1.1,1.1v15.8c0,0.6,0.5,1.1,1.1,1.1h18.9c0.6,0,1.1-0.5,1.1-1.1v-15.8
				c0-0.6-0.5-1.1-1.1-1.1L-196-354.6L-196-354.6z M-177.2-335.7H-196c-1.1,0-2.1-0.9-2.1-2.1v-15.8c0-1.1,0.9-2.1,2.1-2.1h18.9
				c1.1,0,2.1,0.9,2.1,2.1v15.8C-175.1-336.6-176-335.7-177.2-335.7z"/>
		</defs>
		<clipPath id="SVGID_38_">
			<use xlink:href="#SVGID_85_"  style="overflow:visible;"/>
		</clipPath>
		<g class="st20">
			<defs>
				<rect id="SVGID_87_" x="-1416.1" y="-7245.9" width="1600" height="8629"/>
			</defs>
			<clipPath id="SVGID_40_">
				<use xlink:href="#SVGID_87_"  style="overflow:visible;"/>
			</clipPath>
		</g>
	</g>
	<g>
		<defs>
			<path id="SVGID_89_" d="M-178.6-354.6c-0.3,0-0.5-0.2-0.5-0.5v-1.4c0-3.9-3.1-7-7-7s-7,3.1-7,7v1.4c0,0.3-0.2,0.5-0.5,0.5
				c-0.3,0-0.5-0.2-0.5-0.5v-1.4c0-4.4,3.6-8,8-8s8,3.6,8,8v1.4C-178.1-354.8-178.3-354.6-178.6-354.6z"/>
		</defs>
		<clipPath id="SVGID_42_">
			<use xlink:href="#SVGID_89_"  style="overflow:visible;"/>
		</clipPath>
		<g class="st22">
			<defs>
				<rect id="SVGID_91_" x="-1416.1" y="-7245.9" width="1600" height="8629"/>
			</defs>
			<clipPath id="SVGID_44_">
				<use xlink:href="#SVGID_91_"  style="overflow:visible;"/>
			</clipPath>
		</g>
	</g>
	<g>
		<defs>
			<path id="SVGID_93_" d="M-187.1-349.7c-1.1,0-2.1,1-2.1,2.2c0,0.9,0.5,1.7,1.3,2c0.2,0.1,0.3,0.3,0.3,0.5v2.8
				c0,0.3,0.2,0.5,0.5,0.5c0.3,0,0.5-0.2,0.5-0.5v-2.8c0-0.2,0.1-0.4,0.3-0.5c0.8-0.3,1.3-1.1,1.3-2
				C-185-348.7-186-349.7-187.1-349.7z M-187.1-340.7c-0.8,0-1.4-0.7-1.4-1.5v-2.5c-1-0.6-1.6-1.6-1.6-2.8c0-1.7,1.3-3.2,3-3.2
				c1.7,0,3,1.4,3,3.2c0,1.2-0.6,2.2-1.6,2.8v2.5C-185.7-341.3-186.3-340.7-187.1-340.7z"/>
		</defs>
		<clipPath id="SVGID_46_">
			<use xlink:href="#SVGID_93_"  style="overflow:visible;"/>
		</clipPath>
		<g class="st24">
			<defs>
				<rect id="SVGID_95_" x="-1416.1" y="-7245.9" width="1600" height="8629"/>
			</defs>
			<clipPath id="SVGID_48_">
				<use xlink:href="#SVGID_95_"  style="overflow:visible;"/>
			</clipPath>
		</g>
	</g>
</g>
<g id="Layer_3">
</g>
</svg>
