<svg xmlns="http://www.w3.org/2000/svg" viewBox="0 0 98 108.12"><defs><style>.\30 b41dd52-2b48-41ba-9e50-9c3a777e7eb5{fill:#040a29;}.\33 87161da-f4cf-456a-8062-61c01e6f0f5a{fill:#6484ea;}.\38 c2a356b-3018-432e-bb97-1ca087890d0d{fill:#fff;}</style></defs><title>features</title><g id="11624240-03a7-40ae-88ad-1bd9accc4bdf" data-name="Layer 3"><path class="0b41dd52-2b48-41ba-9e50-9c3a777e7eb5" d="M41.83,108.46c-6.79,0-13.52-.28-21.22-3.62l-.82-.35-.4.8a5.67,5.67,0,0,1-5.09,3.15H.77A1.18,1.18,0,0,1-.4,107.26V71.16A1.18,1.18,0,0,1,.77,70h18A1.18,1.18,0,0,1,20,71.16v2.62l1.35-.66c5.78-2.81,17.82-8.66,18.8-20.53a3.6,3.6,0,0,1,3.54-3.22,8,8,0,0,1,7.92,8v.71a20.1,20.1,0,0,1-2.73,10.48L48.1,70H61.71a5.68,5.68,0,0,1,4.12,9.59l-.6.64.59.65a5.68,5.68,0,0,1-1.23,8.69L63.8,90l.47.8a5.68,5.68,0,0,1-1.94,7.74l-.79.48.47.8a5.68,5.68,0,0,1-4.9,8.57H50.43c-1.62,0-3.17,0-4.66,0h-.11Zm-21.26-6.22c7.7,3.58,14.17,3.87,21.23,3.87l3.95,0c1.5,0,3.05,0,4.69,0h6.69a3.34,3.34,0,1,0,0-6.68,1.17,1.17,0,1,1,0-2.35h2.26a3.34,3.34,0,1,0,0-6.67H57.2a1.17,1.17,0,1,1,0-2.35h4.43a3.34,3.34,0,0,0,0-6.67H57.2a1.17,1.17,0,1,1,0-2.35h4.51a3.34,3.34,0,1,0,0-6.68H41.41a1.17,1.17,0,1,1,0-2.35h3.88l.28-.44c2.34-3.67,3.69-6.71,3.69-11.44v-.71a5.67,5.67,0,0,0-5.56-5.65l0-.4v.4a1.24,1.24,0,0,0-1.2,1.07C42,58.58,39.18,63.71,34.07,68c-4.24,3.6-9.21,6-12.84,7.75L20,76.37V102Z"/><path class="0b41dd52-2b48-41ba-9e50-9c3a777e7eb5" d="M41.83,108.06c-6.75,0-13.43-.27-21.06-3.59L19.61,104,19,105.1A5.27,5.27,0,0,1,14.31,108H.77a.78.78,0,0,1-.77-.77V71.16a.78.78,0,0,1,.77-.77h18a.78.78,0,0,1,.77.77v3.26l1.93-.94c5.85-2.84,18-8.76,19-20.86a3.19,3.19,0,0,1,3.14-2.85,7.6,7.6,0,0,1,7.52,7.6v.71a19.72,19.72,0,0,1-2.68,10.29l-1.1,2H61.71a5.28,5.28,0,0,1,3.83,8.92l-.86.91.84.92a5.28,5.28,0,0,1-1.15,8.08l-1.13.69L63.93,91a5.28,5.28,0,0,1-1.8,7.2L61,98.9l.67,1.14a5.28,5.28,0,0,1-4.55,8H50.43l-4.67,0Zm1.85-56.73a1.63,1.63,0,0,0-1.59,1.44c-.47,5.68-3.25,10.72-8.27,15-4.2,3.57-9.15,6-12.76,7.69l-1.43.69v26.12l.78.36c7.78,3.61,14.29,3.9,21.4,3.9l4,0c1.5,0,3,0,4.68,0h6.69a3.74,3.74,0,1,0,0-7.47.77.77,0,0,1,0-1.55h2.26a3.74,3.74,0,1,0,0-7.47H57.2a.77.77,0,1,1,0-1.55h4.43a3.74,3.74,0,1,0,0-7.47H57.2a.77.77,0,0,1,0-1.55h4.51a3.74,3.74,0,1,0,0-7.47H41.41a.77.77,0,1,1,0-1.55h4.1l.4-.62c2.38-3.73,3.76-6.83,3.76-11.66v-.71a6.08,6.08,0,0,0-6-6Z"/><path class="387161da-f4cf-456a-8062-61c01e6f0f5a" d="M1.55,106.48H14.31A3.74,3.74,0,0,0,18,102.75V71.94H1.55Z"/><circle class="8c2a356b-3018-432e-bb97-1ca087890d0d" cx="9.43" cy="99.39" r="3.41"/><path class="0b41dd52-2b48-41ba-9e50-9c3a777e7eb5" d="M9.43,103.54a4.16,4.16,0,1,1,4.16-4.16A4.16,4.16,0,0,1,9.43,103.54Zm0-6.83a2.67,2.67,0,1,0,2.67,2.67A2.67,2.67,0,0,0,9.43,96.72Z"/><path class="0b41dd52-2b48-41ba-9e50-9c3a777e7eb5" d="M31.2,68.69V1.17a1,1,0,0,1,1-1H86.78a1,1,0,0,1,.68.28l9.7,9.7h0a1,1,0,0,1,.28.64h0s0,0,0,0l-.72,78.69a1,1,0,0,1-1,1H62.29m0-1.94H94.8l.7-76.75H86.78a1,1,0,0,1-1-1V2.14H33.14V67.36m61-57.45-6.4-6.4V9.9Z"/><path class="0b41dd52-2b48-41ba-9e50-9c3a777e7eb5" d="M50.28,61.64h4c.15,0,.28.43.28,1s-.12,1-.28,1h-4c-.15,0-.28-.43-.28-1S50.12,61.64,50.28,61.64Z"/><path class="0b41dd52-2b48-41ba-9e50-9c3a777e7eb5" d="M57.68,61.64H68.39a1,1,0,0,1,0,1.94H57.68a1,1,0,1,1,0-1.94Z"/><path class="0b41dd52-2b48-41ba-9e50-9c3a777e7eb5" d="M72.77,61.64H88.22a1,1,0,1,1,0,1.94H72.77a1,1,0,1,1,0-1.94Z"/><path class="0b41dd52-2b48-41ba-9e50-9c3a777e7eb5" d="M50.13,50.86H78.52a1,1,0,0,1,0,1.94H50.13a1,1,0,0,1,0-1.94Z"/><path class="0b41dd52-2b48-41ba-9e50-9c3a777e7eb5" d="M82.2,50.86h6a1,1,0,0,1,0,1.94h-6a1,1,0,1,1,0-1.94Z"/><path class="0b41dd52-2b48-41ba-9e50-9c3a777e7eb5" d="M71,44.4h6.71a1,1,0,1,1,0,1.94H71a1,1,0,1,1,0-1.94Z"/><path class="0b41dd52-2b48-41ba-9e50-9c3a777e7eb5" d="M39.35,44.4H66.91a1,1,0,1,1,0,1.94H39.35a1,1,0,1,1,0-1.94Z"/><path class="0b41dd52-2b48-41ba-9e50-9c3a777e7eb5" d="M54.44,37.93h20a1,1,0,0,1,0,1.94h-20a1,1,0,0,1,0-1.94Z"/><path class="0b41dd52-2b48-41ba-9e50-9c3a777e7eb5" d="M81.17,44.4h7.05a1,1,0,1,1,0,1.94H81.17a1,1,0,0,1,0-1.94Z"/><path class="0b41dd52-2b48-41ba-9e50-9c3a777e7eb5" d="M39.71,37.93h6.12a1,1,0,0,1,0,1.94H39.71a1,1,0,0,1,0-1.94Z"/><path class="0b41dd52-2b48-41ba-9e50-9c3a777e7eb5" d="M45.83,37.93h4.84a1,1,0,0,1,0,1.94H45.83a1,1,0,0,1,0-1.94Z"/><path class="0b41dd52-2b48-41ba-9e50-9c3a777e7eb5" d="M77.62,37.93h10.6a1,1,0,1,1,0,1.94H77.62a1,1,0,0,1,0-1.94Z"/><path class="0b41dd52-2b48-41ba-9e50-9c3a777e7eb5" d="M40.29,24.85H56.38a1,1,0,0,1,0,1.94H40.29a1,1,0,0,1,0-1.94Z"/><path class="0b41dd52-2b48-41ba-9e50-9c3a777e7eb5" d="M60.36,24.85H72.8a1,1,0,0,1,0,1.94H60.36a1,1,0,1,1,0-1.94Z"/><path class="0b41dd52-2b48-41ba-9e50-9c3a777e7eb5" d="M76.58,24.85H86.5a1,1,0,0,1,0,1.94H76.58a1,1,0,1,1,0-1.94Z"/><path class="0b41dd52-2b48-41ba-9e50-9c3a777e7eb5" d="M40.29,18.69h8a1,1,0,0,1,0,1.94h-8a1,1,0,1,1,0-1.94Z"/><path class="0b41dd52-2b48-41ba-9e50-9c3a777e7eb5" d="M51.5,18.69H66.26a1,1,0,0,1,0,1.94H51.5a1,1,0,1,1,0-1.94Z"/><path class="0b41dd52-2b48-41ba-9e50-9c3a777e7eb5" d="M69.6,18.69h8.73a1,1,0,1,1,0,1.94H69.6a1,1,0,1,1,0-1.94Z"/><path class="0b41dd52-2b48-41ba-9e50-9c3a777e7eb5" d="M81.79,18.69H86.5a1,1,0,0,1,0,1.94H81.79a1,1,0,1,1,0-1.94Z"/><path class="8c2a356b-3018-432e-bb97-1ca087890d0d" d="M43.68,51.32a1.63,1.63,0,0,0-1.59,1.44c-.47,5.68-3.25,10.72-8.27,15-4.2,3.57-9.15,6-12.76,7.69l-1.43.69v26.12l.78.36c7.78,3.61,14.29,3.9,21.4,3.9l4,0c1.5,0,3,0,4.68,0h6.69a3.74,3.74,0,1,0,0-7.47.77.77,0,0,1,0-1.55h2.26a3.74,3.74,0,1,0,0-7.47H57.2a.77.77,0,1,1,0-1.55h4.43a3.74,3.74,0,1,0,0-7.47H57.2a.77.77,0,0,1,0-1.55h4.51a3.74,3.74,0,1,0,0-7.47H41.41a.77.77,0,1,1,0-1.55h4.1l.4-.62c2.38-3.73,3.76-6.83,3.76-11.66v-.71a6.08,6.08,0,0,0-6-6Z"/></g></svg>