<?xml version="1.0" encoding="utf-8"?>
<!-- Generator: Adobe Illustrator 21.1.0, SVG Export Plug-In . SVG Version: 6.00 Build 0)  -->
<svg version="1.1" xmlns="http://www.w3.org/2000/svg" xmlns:xlink="http://www.w3.org/1999/xlink" x="0px" y="0px"
	 viewBox="0 0 110.6 122" style="enable-background:new 0 0 110.6 122;" xml:space="preserve">
<style type="text/css">
	.st0{fill:#003955;}
	.st1{fill:#040A29;}
	.st2{clip-path:url(#SVGID_2_);}
	.st3{clip-path:url(#SVGID_4_);}
	.st4{clip-path:url(#SVGID_6_);}
	.st5{clip-path:url(#SVGID_8_);}
	.st6{clip-path:url(#SVGID_10_);}
	.st7{clip-path:url(#SVGID_12_);}
	.st8{clip-path:url(#SVGID_14_);}
	.st9{clip-path:url(#SVGID_16_);}
	.st10{clip-path:url(#SVGID_18_);}
	.st11{clip-path:url(#SVGID_20_);}
	.st12{clip-path:url(#SVGID_22_);}
	.st13{clip-path:url(#SVGID_24_);}
	.st14{clip-path:url(#SVGID_26_);}
	.st15{clip-path:url(#SVGID_28_);}
	.st16{clip-path:url(#SVGID_30_);}
	.st17{clip-path:url(#SVGID_32_);}
	.st18{clip-path:url(#SVGID_34_);}
	.st19{clip-path:url(#SVGID_36_);}
	.st20{clip-path:url(#SVGID_38_);}
	.st21{clip-path:url(#SVGID_40_);}
	.st22{clip-path:url(#SVGID_42_);}
	.st23{clip-path:url(#SVGID_44_);}
	.st24{clip-path:url(#SVGID_46_);}
	.st25{fill:#34C4B3;}
	.st26{fill:none;stroke:#FFFFFF;stroke-width:2;stroke-linecap:round;stroke-linejoin:round;stroke-miterlimit:10;}
	.st27{fill:#79DDD2;}
	.st28{fill:#FFFFFF;}
	.st29{fill:none;stroke:#FFFFFF;stroke-width:2;stroke-miterlimit:10;}
	.st30{fill:#FFFFFF;stroke:#FFFFFF;stroke-width:2;stroke-linecap:round;stroke-linejoin:round;stroke-miterlimit:10;}
	.st31{fill:none;}
	.st32{fill:none;stroke:#FFFFFF;stroke-width:0.5;stroke-linecap:round;stroke-miterlimit:10;}
	.st33{fill:#F5EE33;}
	.st34{fill:#363842;}
	.st35{fill:#FFFFFF;stroke:#FFFFFF;stroke-width:0.75;stroke-miterlimit:10;}
	.st36{fill:#020A16;}
	.st37{fill:#122749;}
	.st38{fill:#262626;}
	.st39{fill:#34C4B3;stroke:#040A29;stroke-width:2;stroke-miterlimit:10;}
	.st40{fill:none;stroke:#040A29;stroke-width:2;stroke-miterlimit:10;}
	.st41{fill:#FFFFFF;stroke:#040A29;stroke-width:2;stroke-miterlimit:10;}
	.st42{fill:#8CA9F4;}
	.st43{fill:#6484EA;}
	.st44{clip-path:url(#SVGID_50_);}
	.st45{clip-path:url(#SVGID_52_);fill:#040A29;}
	.st46{clip-path:url(#SVGID_54_);}
	.st47{clip-path:url(#SVGID_56_);fill:#040A29;}
	.st48{clip-path:url(#SVGID_58_);}
	.st49{clip-path:url(#SVGID_60_);fill:#040A29;}
	.st50{clip-path:url(#SVGID_62_);}
	.st51{clip-path:url(#SVGID_64_);fill:#040A29;}
	.st52{clip-path:url(#SVGID_66_);}
	.st53{clip-path:url(#SVGID_68_);fill:#040A29;}
	.st54{clip-path:url(#SVGID_70_);}
	.st55{clip-path:url(#SVGID_72_);fill:#34C4B3;}
	.st56{clip-path:url(#SVGID_74_);}
	.st57{clip-path:url(#SVGID_76_);fill:#34C4B3;}
	.st58{clip-path:url(#SVGID_78_);}
	.st59{clip-path:url(#SVGID_80_);fill:#34C4B3;}
	.st60{clip-path:url(#SVGID_82_);}
	.st61{clip-path:url(#SVGID_84_);fill:#34C4B3;}
	.st62{clip-path:url(#SVGID_86_);}
	.st63{clip-path:url(#SVGID_88_);fill:#34C4B3;}
	.st64{clip-path:url(#SVGID_90_);}
	.st65{clip-path:url(#SVGID_92_);fill:#34C4B3;}
	.st66{clip-path:url(#SVGID_94_);}
	.st67{clip-path:url(#SVGID_96_);fill:#34C4B3;}
	.st68{fill:#34C4B3;stroke:#000000;stroke-width:2;stroke-linecap:round;stroke-linejoin:round;stroke-miterlimit:10;}
	.st69{fill:none;stroke:#122749;stroke-width:2;stroke-miterlimit:10;}
	.st70{fill:#50C7E2;}
	.st71{fill:#9FAEBB;}
	.st72{fill:#CCD4DB;}
	.st73{fill:#E4EAEF;}
	.st74{opacity:0.15;}
	.st75{display:none;opacity:0.15;}
	.st76{display:inline;fill:#34C4B3;}
	.st77{display:none;fill:#F4F5F7;}
	.st78{fill:none;stroke:#040A29;stroke-width:2;stroke-linecap:round;stroke-linejoin:round;stroke-miterlimit:10;}
	.st79{fill:#122648;}
	.st80{fill:#FFFFFF;stroke:#34C4B3;stroke-width:2;stroke-linecap:round;stroke-linejoin:round;}
	.st81{fill:#34C4B3;stroke:#040A29;stroke-width:2;stroke-linecap:round;stroke-linejoin:round;}
	.st82{fill:#FFFFFF;stroke:#040A29;stroke-width:1.5;stroke-linecap:round;stroke-linejoin:round;}
	.st83{fill:#FFFFFF;stroke:#040A29;stroke-linecap:round;stroke-linejoin:round;}
	.st84{fill:#34C4B3;stroke:#040A29;stroke-linecap:round;stroke-linejoin:round;}
	.st85{enable-background:new    ;}
	.st86{clip-path:url(#SVGID_98_);}
	.st87{clip-path:url(#SVGID_100_);enable-background:new    ;}
	.st88{clip-path:url(#SVGID_102_);}
	.st89{clip-path:url(#SVGID_104_);}
	.st90{opacity:0;clip-path:url(#SVGID_108_);}
	.st91{opacity:0;}
	.st92{clip-path:url(#SVGID_110_);}
	.st93{clip-path:url(#SVGID_108_);}
	.st94{clip-path:url(#SVGID_114_);}
	.st95{opacity:0;clip-path:url(#SVGID_118_);}
	.st96{clip-path:url(#SVGID_120_);}
	.st97{clip-path:url(#SVGID_118_);}
	.st98{clip-path:url(#SVGID_124_);}
	.st99{opacity:0;clip-path:url(#SVGID_128_);}
	.st100{clip-path:url(#SVGID_130_);}
	.st101{clip-path:url(#SVGID_128_);}
	.st102{clip-path:url(#SVGID_134_);}
	.st103{opacity:0;clip-path:url(#SVGID_138_);}
	.st104{clip-path:url(#SVGID_140_);}
	.st105{clip-path:url(#SVGID_138_);}
	.st106{clip-path:url(#SVGID_144_);}
	.st107{fill:none;stroke:#000000;stroke-width:2;stroke-linecap:round;stroke-linejoin:round;stroke-miterlimit:10;}
	.st108{fill:none;stroke:#000000;stroke-width:2;stroke-miterlimit:10;}
	.st109{fill:none;stroke:#34C4B3;stroke-width:2;stroke-linecap:round;stroke-linejoin:round;stroke-miterlimit:10;}
	.st110{fill:#7ADDD2;}
	.st111{fill:#34C4B3;stroke:#040A29;stroke-width:4;stroke-miterlimit:10;}
	.st112{fill:#1E9FC4;}
	.st113{fill:#FFFFFF;stroke:#040A29;stroke-width:2;stroke-linejoin:round;stroke-miterlimit:10;}
	.st114{fill:#FFFFFF;stroke:#040A29;stroke-width:3;stroke-linecap:round;stroke-linejoin:round;stroke-miterlimit:10;}
	.st115{fill:none;stroke:#FFFFFF;stroke-miterlimit:10;}
	.st116{fill:#79DDD2;stroke:#FFFFFF;stroke-width:2;stroke-miterlimit:10;}
	.st117{fill:none;stroke:#040A29;stroke-width:2;stroke-linecap:round;stroke-miterlimit:10;}
	.st118{fill:#6484EA;stroke:#040A29;stroke-miterlimit:10;}
	.st119{fill:#8CA9F4;stroke:#040A29;stroke-width:2;stroke-miterlimit:10;}
</style>
<g id="Layer_1">
	<g>
		<g>
			<defs>
				<path id="SVGID_49_" d="M-210,22.1c-0.4,0-0.8-0.3-0.8-0.7l-0.2-0.2c-0.4,0-0.7-0.4-0.7-0.8c0-0.4,0.3-0.8,0.7-0.8l0.2-0.2
					c0-0.4,0.4-0.7,0.8-0.7c0.4,0,0.8,0.3,0.8,0.7l0.2,0.2c0.4,0,0.7,0.4,0.7,0.8c0,0.4-0.3,0.8-0.7,0.8l-0.2,0.2
					C-209.3,21.8-209.6,22.1-210,22.1z"/>
			</defs>
			<use xlink:href="#SVGID_49_"  style="overflow:visible;fill:#040A29;"/>
			<clipPath id="SVGID_2_">
				<use xlink:href="#SVGID_49_"  style="overflow:visible;"/>
			</clipPath>
			<g class="st2">
				<defs>
					<rect id="SVGID_51_" x="-1413.6" y="-3978.8" width="1600" height="7919"/>
				</defs>
				<use xlink:href="#SVGID_51_"  style="overflow:visible;fill:#040A29;"/>
				<clipPath id="SVGID_4_">
					<use xlink:href="#SVGID_51_"  style="overflow:visible;"/>
				</clipPath>
			</g>
		</g>
		<g>
			<defs>
				<path id="SVGID_53_" d="M-195,57.1c-0.4,0-0.8-0.3-0.8-0.7l-0.2-0.2c-0.4,0-0.7-0.4-0.7-0.8c0-0.4,0.3-0.8,0.7-0.8l0.2-0.2
					c0-0.4,0.4-0.7,0.8-0.7c0.4,0,0.8,0.3,0.8,0.7l0.2,0.2c0.4,0,0.7,0.4,0.7,0.8c0,0.4-0.3,0.8-0.7,0.8l-0.2,0.2
					C-194.3,56.8-194.6,57.1-195,57.1z"/>
			</defs>
			<use xlink:href="#SVGID_53_"  style="overflow:visible;fill:#040A29;"/>
			<clipPath id="SVGID_6_">
				<use xlink:href="#SVGID_53_"  style="overflow:visible;"/>
			</clipPath>
			<g class="st4">
				<defs>
					<rect id="SVGID_55_" x="-1398.6" y="-3943.8" width="1600" height="7919"/>
				</defs>
				<use xlink:href="#SVGID_55_"  style="overflow:visible;fill:#040A29;"/>
				<clipPath id="SVGID_8_">
					<use xlink:href="#SVGID_55_"  style="overflow:visible;"/>
				</clipPath>
			</g>
		</g>
		<g>
			<defs>
				<path id="SVGID_57_" d="M-180,85.1c-0.4,0-0.8-0.3-0.8-0.7l-0.2-0.2c-0.4,0-0.7-0.4-0.7-0.8c0-0.4,0.3-0.8,0.7-0.8l0.2-0.2
					c0-0.4,0.4-0.7,0.8-0.7c0.4,0,0.8,0.3,0.8,0.7l0.2,0.2c0.4,0,0.7,0.4,0.7,0.8c0,0.4-0.3,0.8-0.7,0.8l-0.2,0.2
					C-179.3,84.8-179.6,85.1-180,85.1z"/>
			</defs>
			<use xlink:href="#SVGID_57_"  style="overflow:visible;fill:#040A29;"/>
			<clipPath id="SVGID_10_">
				<use xlink:href="#SVGID_57_"  style="overflow:visible;"/>
			</clipPath>
			<g class="st6">
				<defs>
					<rect id="SVGID_59_" x="-1383.6" y="-3915.8" width="1600" height="7919"/>
				</defs>
				<use xlink:href="#SVGID_59_"  style="overflow:visible;fill:#040A29;"/>
				<clipPath id="SVGID_12_">
					<use xlink:href="#SVGID_59_"  style="overflow:visible;"/>
				</clipPath>
			</g>
		</g>
		<g>
			<defs>
				<path id="SVGID_61_" d="M-185,89.1c-0.4,0-0.8-0.3-0.8-0.7l-0.2-0.2c-0.4,0-0.7-0.4-0.7-0.8c0-0.4,0.3-0.8,0.7-0.8l0.2-0.2
					c0-0.4,0.4-0.7,0.8-0.7c0.4,0,0.8,0.3,0.8,0.7l0.2,0.2c0.4,0,0.7,0.4,0.7,0.8c0,0.4-0.3,0.8-0.7,0.8l-0.2,0.2
					C-184.3,88.8-184.6,89.1-185,89.1z"/>
			</defs>
			<use xlink:href="#SVGID_61_"  style="overflow:visible;fill:#040A29;"/>
			<clipPath id="SVGID_14_">
				<use xlink:href="#SVGID_61_"  style="overflow:visible;"/>
			</clipPath>
			<g class="st8">
				<defs>
					<rect id="SVGID_63_" x="-1388.6" y="-3911.8" width="1600" height="7919"/>
				</defs>
				<use xlink:href="#SVGID_63_"  style="overflow:visible;fill:#040A29;"/>
				<clipPath id="SVGID_16_">
					<use xlink:href="#SVGID_63_"  style="overflow:visible;"/>
				</clipPath>
			</g>
		</g>
		<g>
			<defs>
				<path id="SVGID_65_" d="M-207,90.1c-0.4,0-0.8-0.3-0.8-0.7l-0.2-0.2c-0.4,0-0.7-0.4-0.7-0.8c0-0.4,0.3-0.8,0.7-0.8l0.2-0.2
					c0-0.4,0.4-0.7,0.8-0.7c0.4,0,0.8,0.3,0.8,0.7l0.2,0.2c0.4,0,0.7,0.4,0.7,0.8c0,0.4-0.3,0.8-0.7,0.8l-0.2,0.2
					C-206.3,89.8-206.6,90.1-207,90.1z"/>
			</defs>
			<use xlink:href="#SVGID_65_"  style="overflow:visible;fill:#040A29;"/>
			<clipPath id="SVGID_18_">
				<use xlink:href="#SVGID_65_"  style="overflow:visible;"/>
			</clipPath>
			<g class="st10">
				<defs>
					<rect id="SVGID_67_" x="-1410.6" y="-3910.8" width="1600" height="7919"/>
				</defs>
				<use xlink:href="#SVGID_67_"  style="overflow:visible;fill:#040A29;"/>
				<clipPath id="SVGID_20_">
					<use xlink:href="#SVGID_67_"  style="overflow:visible;"/>
				</clipPath>
			</g>
		</g>
	</g>
</g>
<g id="Layer_2">
</g>
<g id="Layer_3">
	<g>
		<path class="st1" d="M104.6,22.6h-0.1v-0.1c0-0.4-0.3-0.6-0.6-0.6c-0.4,0-0.6,0.3-0.6,0.6v0.1h-0.1c-0.4,0-0.6,0.3-0.6,0.6
			c0,0.4,0.3,0.6,0.6,0.6h0.1V24c0,0.4,0.3,0.6,0.6,0.6c0.4,0,0.6-0.3,0.6-0.6v-0.1h0.1c0.4,0,0.6-0.3,0.6-0.6
			C105.2,22.8,104.9,22.6,104.6,22.6z"/>
		<polygon class="st43" points="39.6,104 64.8,46 91.6,46 91.8,60 64.6,60 64.6,104 43.6,104 		"/>
		<g>
			<path class="st1" d="M97.6,9.5c-0.9,0-1.6-0.7-1.6-1.7c0-0.4-0.9-1.4-1.4-1.4c-0.9,0-1.6-0.7-1.6-1.7C93,3.7,93.7,3,94.7,3
				c0.4,0,1.4-0.9,1.4-1.4c0-0.9,0.7-1.6,1.7-1.6c0.9,0,1.6,0.7,1.6,1.7c0,0.4,0.9,1.4,1.4,1.4c0.9,0,1.6,0.7,1.6,1.7
				c0,0.9-0.7,1.6-1.7,1.6c-0.4,0-1.4,0.9-1.4,1.4c0,0.1,0,0.2,0,0.2C99.1,8.7,98.4,9.5,97.6,9.5z M97.5,7.7
				C97.5,7.7,97.5,7.7,97.5,7.7L97.5,7.7C97.5,7.7,97.5,7.7,97.5,7.7z M95.4,4.7c1,0.4,2,1.4,2.3,2.4c0.4-1,1.4-2,2.4-2.3
				c-1-0.4-2-1.4-2.3-2.4C97.4,3.4,96.4,4.3,95.4,4.7z"/>
			<path class="st43" d="M95.4,4.7c1,0.4,2,1.4,2.3,2.4c0.4-1,1.4-2,2.4-2.3c-1-0.4-2-1.4-2.3-2.4C97.4,3.4,96.4,4.3,95.4,4.7z"/>
		</g>
		<g>
			<path class="st1" d="M4.6,17.5c-0.9,0-1.6-0.7-1.6-1.7c0-0.4-0.9-1.4-1.4-1.4c-0.9,0-1.6-0.7-1.6-1.7C0,11.7,0.7,11,1.7,11
				c0.4,0,1.4-0.9,1.4-1.4C3.2,8.7,3.9,8,4.9,8c0.9,0,1.6,0.7,1.6,1.7c0,0.4,0.9,1.4,1.4,1.4c0.9,0,1.6,0.7,1.6,1.7
				c0,0.9-0.7,1.6-1.7,1.6c-0.4,0-1.4,0.9-1.4,1.4c0,0.1,0,0.2,0,0.2C6.1,16.7,5.4,17.5,4.6,17.5z M4.5,15.7
				C4.5,15.7,4.5,15.7,4.5,15.7L4.5,15.7C4.5,15.7,4.5,15.7,4.5,15.7z M2.4,12.7c1,0.4,2,1.4,2.3,2.4c0.4-1,1.4-2,2.4-2.3
				c-1-0.4-2-1.4-2.3-2.4C4.4,11.4,3.4,12.3,2.4,12.7z"/>
			<path class="st43" d="M2.4,12.7c1,0.4,2,1.4,2.3,2.4c0.4-1,1.4-2,2.4-2.3c-1-0.4-2-1.4-2.3-2.4C4.4,11.4,3.4,12.3,2.4,12.7z"/>
		</g>
		<path class="st1" d="M87.6,7.6h-0.1V7.4c0-0.4-0.3-0.6-0.6-0.6c-0.4,0-0.6,0.3-0.6,0.6v0.1h-0.1c-0.4,0-0.6,0.3-0.6,0.6
			s0.3,0.6,0.6,0.6h0.1V9c0,0.4,0.3,0.6,0.6,0.6c0.4,0,0.6-0.3,0.6-0.6V8.8h0.1c0.4,0,0.6-0.3,0.6-0.6S87.9,7.6,87.6,7.6z"/>
		<path class="st1" d="M37.9,39.5c-3.7,0-6.8-3-6.8-6.8s3-6.8,6.8-6.8h26.8c3.7,0,6.8,3,6.8,6.8s-3,6.8-6.8,6.8H37.9z M37.9,27.6
			c-2.8,0-5.1,2.3-5.1,5.1s2.3,5.1,5.1,5.1h26.8c2.8,0,5.1-2.3,5.1-5.1s-2.3-5.1-5.1-5.1H37.9z"/>
		<path class="st42" d="M37.9,27.6c-2.8,0-5.1,2.3-5.1,5.1s2.3,5.1,5.1,5.1h26.8c2.8,0,5.1-2.3,5.1-5.1s-2.3-5.1-5.1-5.1H37.9z"/>
		<path class="st78" d="M95.8,46h-89V24c0-2.2,1.8-4,4-4h81c2.2,0,4,1.8,4,4V46z"/>
		<polyline class="st78" points="64.6,104 10.8,104 10.8,46 91.8,46 91.8,60 		"/>
		<rect x="64.6" y="60" class="st78" width="45" height="61"/>
		<line class="st78" x1="97.7" y1="72" x2="103.6" y2="72"/>
		<line class="st78" x1="83.4" y1="72" x2="92.5" y2="72"/>
		<line class="st78" x1="71.6" y1="72" x2="77.6" y2="72"/>
		<line class="st78" x1="84.6" y1="77" x2="103.6" y2="77"/>
		<line class="st78" x1="71.6" y1="77" x2="79.1" y2="77"/>
		<line class="st78" x1="97.7" y1="82" x2="103.6" y2="82"/>
		<line class="st78" x1="71.6" y1="82" x2="91.8" y2="82"/>
		<line class="st78" x1="87.6" y1="93" x2="103.6" y2="93"/>
		<line class="st78" x1="71.6" y1="93" x2="83.4" y2="93"/>
		<line class="st78" x1="98.8" y1="98" x2="103.6" y2="98"/>
		<line class="st78" x1="81.7" y1="98" x2="94.1" y2="98"/>
		<line class="st78" x1="71.6" y1="98" x2="76.8" y2="98"/>
		<line class="st78" x1="89.9" y1="107" x2="103.6" y2="107"/>
		<line class="st78" x1="71.6" y1="107" x2="84.1" y2="107"/>
		<line class="st78" x1="98.8" y1="112" x2="103.6" y2="112"/>
		<line class="st78" x1="82.4" y1="112" x2="94.1" y2="112"/>
		<line class="st78" x1="71.6" y1="112" x2="77.5" y2="112"/>
		<line class="st78" x1="10.8" y1="95.5" x2="64.6" y2="95.5"/>
	</g>
</g>
</svg>
